<?xml version="1.0" encoding="UTF-8" standalone="no"?>
<!DOCTYPE svg PUBLIC "-//W3C//DTD SVG 1.1//EN" "http://www.w3.org/Graphics/SVG/1.1/DTD/svg11.dtd">
<svg width="100%" height="100%" viewBox="0 0 582 151" version="1.1" xmlns="http://www.w3.org/2000/svg" xmlns:xlink="http://www.w3.org/1999/xlink" xml:space="preserve" xmlns:serif="http://www.serif.com/" style="fill-rule:evenodd;clip-rule:evenodd;stroke-linejoin:round;stroke-miterlimit:2;">
    <g transform="matrix(1,0,0,1,-35,-2325)">
        <g id="logotype_color" transform="matrix(0.775972,0,0,0.911492,35.6167,1787.9)">
            <rect x="0" y="589.923" width="748.802" height="164.565" style="fill:none;"/>
            <g transform="matrix(2.7183,0,0,1.24969,33.4534,619.203)">
                <g id="Open">
                    <g transform="matrix(47.4085,0,0,87.7899,2.87773,70.8632)">
                        <path d="M0.319,0.008C0.268,0.008 0.222,-0.004 0.181,-0.027C0.14,-0.05 0.107,-0.082 0.084,-0.125C0.06,-0.167 0.048,-0.216 0.048,-0.273C0.048,-0.33 0.06,-0.379 0.084,-0.422C0.108,-0.464 0.141,-0.497 0.182,-0.52C0.223,-0.543 0.27,-0.554 0.321,-0.554C0.372,-0.554 0.419,-0.543 0.461,-0.52C0.502,-0.497 0.535,-0.464 0.559,-0.422C0.582,-0.379 0.594,-0.33 0.594,-0.273C0.594,-0.217 0.582,-0.168 0.558,-0.125C0.534,-0.082 0.501,-0.05 0.459,-0.027C0.417,-0.004 0.37,0.008 0.319,0.008ZM0.319,-0.053C0.355,-0.053 0.388,-0.061 0.419,-0.078C0.45,-0.094 0.474,-0.118 0.494,-0.152C0.513,-0.185 0.522,-0.225 0.522,-0.273C0.522,-0.321 0.513,-0.362 0.494,-0.395C0.475,-0.428 0.451,-0.452 0.42,-0.469C0.389,-0.485 0.356,-0.493 0.32,-0.493C0.284,-0.493 0.251,-0.485 0.22,-0.469C0.189,-0.452 0.165,-0.428 0.147,-0.395C0.128,-0.362 0.119,-0.321 0.119,-0.273C0.119,-0.225 0.128,-0.185 0.147,-0.152C0.165,-0.118 0.189,-0.094 0.22,-0.078C0.25,-0.061 0.283,-0.053 0.319,-0.053Z" style="fill:white;fill-rule:nonzero;"/>
                    </g>
                    <g transform="matrix(47.4085,0,0,87.7899,33.3134,70.8632)">
                        <path d="M0.149,-0.426C0.166,-0.463 0.194,-0.493 0.232,-0.518C0.269,-0.542 0.314,-0.554 0.366,-0.554C0.415,-0.554 0.46,-0.543 0.5,-0.52C0.539,-0.497 0.57,-0.464 0.593,-0.422C0.615,-0.379 0.626,-0.33 0.626,-0.274C0.626,-0.218 0.615,-0.169 0.593,-0.126C0.57,-0.083 0.539,-0.05 0.5,-0.027C0.46,-0.004 0.415,0.008 0.366,0.008C0.315,0.008 0.27,-0.004 0.232,-0.029C0.194,-0.053 0.166,-0.083 0.149,-0.12L0.149,0.258L0.08,0.258L0.08,-0.546L0.149,-0.546L0.149,-0.426ZM0.555,-0.274C0.555,-0.319 0.546,-0.359 0.529,-0.392C0.511,-0.425 0.487,-0.45 0.456,-0.467C0.425,-0.484 0.391,-0.493 0.352,-0.493C0.315,-0.493 0.281,-0.484 0.25,-0.466C0.219,-0.448 0.194,-0.422 0.176,-0.389C0.158,-0.356 0.149,-0.317 0.149,-0.273C0.149,-0.229 0.158,-0.19 0.176,-0.157C0.194,-0.124 0.219,-0.098 0.25,-0.08C0.281,-0.062 0.315,-0.053 0.352,-0.053C0.391,-0.053 0.425,-0.062 0.456,-0.08C0.487,-0.097 0.511,-0.123 0.529,-0.157C0.546,-0.19 0.555,-0.229 0.555,-0.274Z" style="fill:white;fill-rule:nonzero;"/>
                    </g>
                    <g transform="matrix(47.4085,0,0,87.7899,65.3135,70.8632)">
                        <path d="M0.574,-0.301C0.574,-0.277 0.573,-0.259 0.572,-0.246L0.119,-0.246C0.121,-0.205 0.131,-0.169 0.149,-0.14C0.167,-0.111 0.191,-0.089 0.22,-0.074C0.249,-0.059 0.281,-0.051 0.316,-0.051C0.361,-0.051 0.4,-0.062 0.431,-0.084C0.462,-0.106 0.482,-0.136 0.492,-0.173L0.566,-0.173C0.553,-0.12 0.524,-0.076 0.481,-0.043C0.437,-0.009 0.382,0.008 0.316,0.008C0.265,0.008 0.219,-0.004 0.178,-0.027C0.137,-0.05 0.106,-0.082 0.083,-0.125C0.059,-0.167 0.048,-0.216 0.048,-0.273C0.048,-0.33 0.059,-0.379 0.082,-0.422C0.105,-0.465 0.136,-0.497 0.177,-0.52C0.218,-0.543 0.264,-0.554 0.316,-0.554C0.368,-0.554 0.413,-0.543 0.453,-0.52C0.492,-0.497 0.522,-0.467 0.543,-0.429C0.564,-0.39 0.574,-0.348 0.574,-0.301ZM0.503,-0.303C0.504,-0.344 0.496,-0.378 0.478,-0.407C0.462,-0.436 0.438,-0.457 0.409,-0.472C0.38,-0.487 0.348,-0.494 0.313,-0.494C0.261,-0.494 0.217,-0.477 0.18,-0.444C0.143,-0.411 0.123,-0.364 0.119,-0.303L0.503,-0.303Z" style="fill:white;fill-rule:nonzero;"/>
                    </g>
                    <g transform="matrix(47.4085,0,0,87.7899,94.801,70.8632)">
                        <path d="M0.336,-0.556C0.401,-0.556 0.455,-0.536 0.496,-0.496C0.537,-0.455 0.558,-0.397 0.558,-0.32L0.558,-0L0.489,-0L0.489,-0.312C0.489,-0.371 0.474,-0.417 0.445,-0.448C0.415,-0.479 0.374,-0.495 0.323,-0.495C0.27,-0.495 0.228,-0.478 0.197,-0.445C0.166,-0.412 0.15,-0.363 0.15,-0.298L0.15,-0L0.08,-0L0.08,-0.546L0.15,-0.546L0.15,-0.453C0.167,-0.486 0.192,-0.512 0.225,-0.53C0.258,-0.547 0.295,-0.556 0.336,-0.556Z" style="fill:white;fill-rule:nonzero;"/>
                    </g>
                </g>
                <g id="PYPE">
                    <g transform="matrix(47.4085,0,0,87.7899,124.81,70.8632)">
                        <path d="M0.629,-0.465C0.629,-0.42 0.619,-0.38 0.598,-0.344C0.577,-0.307 0.547,-0.278 0.506,-0.257C0.466,-0.236 0.417,-0.225 0.36,-0.225L0.272,-0.225L0.272,-0.05C0.272,-0.037 0.267,-0.024 0.257,-0.015C0.248,-0.005 0.235,0 0.222,0L0.1,0C0.072,0 0.05,-0.022 0.05,-0.05L0.05,-0.658C0.05,-0.686 0.072,-0.708 0.1,-0.708L0.36,-0.708C0.447,-0.708 0.513,-0.686 0.56,-0.642C0.606,-0.598 0.629,-0.539 0.629,-0.465ZM0.335,-0.4C0.381,-0.4 0.404,-0.422 0.404,-0.465C0.404,-0.508 0.381,-0.53 0.335,-0.53L0.272,-0.53L0.272,-0.4L0.335,-0.4Z" style="fill:url(#_Radial1);fill-rule:nonzero;"/>
                    </g>
                    <g transform="matrix(47.4085,0,0,87.7899,155.577,70.8632)">
                        <path d="M0.648,-0.708C0.665,-0.708 0.682,-0.699 0.691,-0.684C0.7,-0.669 0.7,-0.651 0.692,-0.635C0.622,-0.498 0.476,-0.215 0.476,-0.215L0.476,-0.05C0.476,-0.022 0.454,0 0.426,0L0.304,0C0.276,0 0.254,-0.022 0.254,-0.05L0.254,-0.215C0.254,-0.215 0.108,-0.498 0.038,-0.635C0.03,-0.651 0.03,-0.669 0.039,-0.684C0.048,-0.699 0.065,-0.708 0.082,-0.708L0.222,-0.708C0.241,-0.708 0.259,-0.696 0.267,-0.679C0.297,-0.612 0.367,-0.457 0.367,-0.457C0.367,-0.457 0.437,-0.612 0.467,-0.679C0.475,-0.696 0.493,-0.708 0.512,-0.708L0.648,-0.708Z" style="fill:url(#_Radial2);fill-rule:nonzero;"/>
                    </g>
                    <g transform="matrix(47.4085,0,0,87.7899,190.185,70.8632)">
                        <path d="M0.629,-0.465C0.629,-0.42 0.619,-0.38 0.598,-0.344C0.577,-0.307 0.547,-0.278 0.506,-0.257C0.466,-0.236 0.417,-0.225 0.36,-0.225L0.272,-0.225L0.272,-0.05C0.272,-0.037 0.267,-0.024 0.257,-0.015C0.248,-0.005 0.235,0 0.222,0L0.1,0C0.072,0 0.05,-0.022 0.05,-0.05L0.05,-0.658C0.05,-0.686 0.072,-0.708 0.1,-0.708L0.36,-0.708C0.447,-0.708 0.513,-0.686 0.56,-0.642C0.606,-0.598 0.629,-0.539 0.629,-0.465ZM0.335,-0.4C0.381,-0.4 0.404,-0.422 0.404,-0.465C0.404,-0.508 0.381,-0.53 0.335,-0.53L0.272,-0.53L0.272,-0.4L0.335,-0.4Z" style="fill:url(#_Radial3);fill-rule:nonzero;"/>
                    </g>
                    <g transform="matrix(47.4085,0,0,87.7899,220.953,70.8632)">
                        <path d="M0.272,-0.531L0.272,-0.444L0.492,-0.444L0.492,-0.277L0.272,-0.277L0.272,-0.177L0.472,-0.177C0.485,-0.177 0.498,-0.172 0.507,-0.162C0.517,-0.153 0.522,-0.14 0.522,-0.127L0.522,-0.05C0.522,-0.037 0.517,-0.024 0.507,-0.015C0.498,-0.005 0.485,0 0.472,-0L0.1,0C0.072,0 0.05,-0.022 0.05,-0.05L0.05,-0.658C0.05,-0.686 0.072,-0.708 0.1,-0.708L0.472,-0.708C0.485,-0.708 0.498,-0.703 0.507,-0.693C0.517,-0.684 0.522,-0.671 0.522,-0.658L0.522,-0.581C0.522,-0.568 0.517,-0.555 0.507,-0.546C0.498,-0.536 0.485,-0.531 0.472,-0.531L0.272,-0.531Z" style="fill:url(#_Radial4);fill-rule:nonzero;"/>
                    </g>
                </g>
                <g id="PYPE1" serif:id="PYPE">
                    <g transform="matrix(47.4085,0,0,87.7899,124.81,70.8632)">
                        <path d="M0.629,-0.465C0.629,-0.42 0.619,-0.38 0.598,-0.344C0.577,-0.307 0.547,-0.278 0.506,-0.257C0.466,-0.236 0.417,-0.225 0.36,-0.225L0.272,-0.225L0.272,-0.05C0.272,-0.037 0.267,-0.024 0.257,-0.015C0.248,-0.005 0.235,0 0.222,0L0.1,0C0.072,0 0.05,-0.022 0.05,-0.05L0.05,-0.658C0.05,-0.686 0.072,-0.708 0.1,-0.708L0.36,-0.708C0.447,-0.708 0.513,-0.686 0.56,-0.642C0.606,-0.598 0.629,-0.539 0.629,-0.465ZM0.335,-0.4C0.381,-0.4 0.404,-0.422 0.404,-0.465C0.404,-0.508 0.381,-0.53 0.335,-0.53L0.272,-0.53L0.272,-0.4L0.335,-0.4Z" style="fill:url(#_Linear5);fill-rule:nonzero;"/>
                    </g>
                    <g transform="matrix(47.4085,0,0,87.7899,155.577,70.8632)">
                        <path d="M0.648,-0.708C0.665,-0.708 0.682,-0.699 0.691,-0.684C0.7,-0.669 0.7,-0.651 0.692,-0.635C0.622,-0.498 0.476,-0.215 0.476,-0.215L0.476,-0.05C0.476,-0.022 0.454,0 0.426,0L0.304,0C0.276,0 0.254,-0.022 0.254,-0.05L0.254,-0.215C0.254,-0.215 0.108,-0.498 0.038,-0.635C0.03,-0.651 0.03,-0.669 0.039,-0.684C0.048,-0.699 0.065,-0.708 0.082,-0.708L0.222,-0.708C0.241,-0.708 0.259,-0.696 0.267,-0.679C0.297,-0.612 0.367,-0.457 0.367,-0.457C0.367,-0.457 0.437,-0.612 0.467,-0.679C0.475,-0.696 0.493,-0.708 0.512,-0.708L0.648,-0.708Z" style="fill:url(#_Linear6);fill-rule:nonzero;"/>
                    </g>
                    <g transform="matrix(47.4085,0,0,87.7899,190.185,70.8632)">
                        <path d="M0.629,-0.465C0.629,-0.42 0.619,-0.38 0.598,-0.344C0.577,-0.307 0.547,-0.278 0.506,-0.257C0.466,-0.236 0.417,-0.225 0.36,-0.225L0.272,-0.225L0.272,-0.05C0.272,-0.037 0.267,-0.024 0.257,-0.015C0.248,-0.005 0.235,0 0.222,0L0.1,0C0.072,0 0.05,-0.022 0.05,-0.05L0.05,-0.658C0.05,-0.686 0.072,-0.708 0.1,-0.708L0.36,-0.708C0.447,-0.708 0.513,-0.686 0.56,-0.642C0.606,-0.598 0.629,-0.539 0.629,-0.465ZM0.335,-0.4C0.381,-0.4 0.404,-0.422 0.404,-0.465C0.404,-0.508 0.381,-0.53 0.335,-0.53L0.272,-0.53L0.272,-0.4L0.335,-0.4Z" style="fill:url(#_Linear7);fill-rule:nonzero;"/>
                    </g>
                    <g transform="matrix(47.4085,0,0,87.7899,220.953,70.8632)">
                        <path d="M0.272,-0.531L0.272,-0.444L0.492,-0.444L0.492,-0.277L0.272,-0.277L0.272,-0.177L0.472,-0.177C0.485,-0.177 0.498,-0.172 0.507,-0.162C0.517,-0.153 0.522,-0.14 0.522,-0.127L0.522,-0.05C0.522,-0.037 0.517,-0.024 0.507,-0.015C0.498,-0.005 0.485,0 0.472,-0L0.1,0C0.072,0 0.05,-0.022 0.05,-0.05L0.05,-0.658C0.05,-0.686 0.072,-0.708 0.1,-0.708L0.472,-0.708C0.485,-0.708 0.498,-0.703 0.507,-0.693C0.517,-0.684 0.522,-0.671 0.522,-0.658L0.522,-0.581C0.522,-0.568 0.517,-0.555 0.507,-0.546C0.498,-0.536 0.485,-0.531 0.472,-0.531L0.272,-0.531Z" style="fill:url(#_Linear8);fill-rule:nonzero;"/>
                    </g>
                </g>
            </g>
        </g>
    </g>
    <defs>
        <radialGradient id="_Radial1" cx="0" cy="0" r="1" gradientUnits="userSpaceOnUse" gradientTransform="matrix(0.439069,-1.25895,0.560073,0.19533,0.532487,0.031528)"><stop offset="0" style="stop-color:rgb(59,235,185);stop-opacity:1"/><stop offset="1" style="stop-color:rgb(82,171,215);stop-opacity:1"/></radialGradient>
        <radialGradient id="_Radial2" cx="0" cy="0" r="1" gradientUnits="userSpaceOnUse" gradientTransform="matrix(0.439069,-1.25895,0.560073,0.19533,-0.1165,0.031528)"><stop offset="0" style="stop-color:rgb(59,235,185);stop-opacity:1"/><stop offset="1" style="stop-color:rgb(82,171,215);stop-opacity:1"/></radialGradient>
        <radialGradient id="_Radial3" cx="0" cy="0" r="1" gradientUnits="userSpaceOnUse" gradientTransform="matrix(0.439069,-1.25895,0.560073,0.19533,-0.846488,0.031528)"><stop offset="0" style="stop-color:rgb(59,235,185);stop-opacity:1"/><stop offset="1" style="stop-color:rgb(82,171,215);stop-opacity:1"/></radialGradient>
        <radialGradient id="_Radial4" cx="0" cy="0" r="1" gradientUnits="userSpaceOnUse" gradientTransform="matrix(0.439069,-1.25895,0.560073,0.19533,-1.49548,0.031528)"><stop offset="0" style="stop-color:rgb(59,235,185);stop-opacity:1"/><stop offset="1" style="stop-color:rgb(82,171,215);stop-opacity:1"/></radialGradient>
        <linearGradient id="_Linear5" x1="0" y1="0" x2="1" y2="0" gradientUnits="userSpaceOnUse" gradientTransform="matrix(2.53395,-0.683745,0.19364,0.717625,0.0459269,-0.0121274)"><stop offset="0" style="stop-color:rgb(59,235,185);stop-opacity:1"/><stop offset="0.47" style="stop-color:rgb(77,186,208);stop-opacity:1"/><stop offset="1" style="stop-color:rgb(82,171,215);stop-opacity:1"/></linearGradient>
        <linearGradient id="_Linear6" x1="0" y1="0" x2="1" y2="0" gradientUnits="userSpaceOnUse" gradientTransform="matrix(2.53395,-0.683745,0.19364,0.717625,-0.603061,-0.0121274)"><stop offset="0" style="stop-color:rgb(59,235,185);stop-opacity:1"/><stop offset="0.47" style="stop-color:rgb(77,186,208);stop-opacity:1"/><stop offset="1" style="stop-color:rgb(82,171,215);stop-opacity:1"/></linearGradient>
        <linearGradient id="_Linear7" x1="0" y1="0" x2="1" y2="0" gradientUnits="userSpaceOnUse" gradientTransform="matrix(2.53395,-0.683745,0.19364,0.717625,-1.33305,-0.0121274)"><stop offset="0" style="stop-color:rgb(59,235,185);stop-opacity:1"/><stop offset="0.47" style="stop-color:rgb(77,186,208);stop-opacity:1"/><stop offset="1" style="stop-color:rgb(82,171,215);stop-opacity:1"/></linearGradient>
        <linearGradient id="_Linear8" x1="0" y1="0" x2="1" y2="0" gradientUnits="userSpaceOnUse" gradientTransform="matrix(2.53395,-0.683745,0.19364,0.717625,-1.98204,-0.0121274)"><stop offset="0" style="stop-color:rgb(59,235,185);stop-opacity:1"/><stop offset="0.47" style="stop-color:rgb(77,186,208);stop-opacity:1"/><stop offset="1" style="stop-color:rgb(82,171,215);stop-opacity:1"/></linearGradient>
    </defs>
</svg>
