<?xml version="1.0" encoding="UTF-8" standalone="no"?>
<!DOCTYPE svg PUBLIC "-//W3C//DTD SVG 1.1//EN" "http://www.w3.org/Graphics/SVG/1.1/DTD/svg11.dtd">
<svg width="100%" height="100%" viewBox="0 0 582 151" version="1.1" xmlns="http://www.w3.org/2000/svg" xmlns:xlink="http://www.w3.org/1999/xlink" xml:space="preserve" xmlns:serif="http://www.serif.com/" style="fill-rule:evenodd;clip-rule:evenodd;stroke-linejoin:round;stroke-miterlimit:2;">
    <g transform="matrix(1,0,0,1,-35,-2135)">
        <g id="pypeclub_color_white" transform="matrix(0.775972,0,0,0.911492,35.6167,1597.77)">
            <rect x="0" y="589.923" width="748.802" height="164.565" style="fill:none;"/>
            <g transform="matrix(2.7183,0,0,1.24969,-3.76111,624.796)">
                <g id="PYPE" transform="matrix(1,0,0,1,-105.172,0)">
                    <g transform="matrix(47.4085,0,0,87.7899,124.81,70.8632)">
                        <path d="M0.629,-0.465C0.629,-0.42 0.619,-0.38 0.598,-0.344C0.577,-0.307 0.547,-0.278 0.506,-0.257C0.466,-0.236 0.417,-0.225 0.36,-0.225L0.272,-0.225L0.272,-0.05C0.272,-0.037 0.267,-0.024 0.257,-0.015C0.248,-0.005 0.235,0 0.222,0L0.1,0C0.072,0 0.05,-0.022 0.05,-0.05L0.05,-0.658C0.05,-0.686 0.072,-0.708 0.1,-0.708L0.36,-0.708C0.447,-0.708 0.513,-0.686 0.56,-0.642C0.606,-0.598 0.629,-0.539 0.629,-0.465ZM0.335,-0.4C0.381,-0.4 0.404,-0.422 0.404,-0.465C0.404,-0.508 0.381,-0.53 0.335,-0.53L0.272,-0.53L0.272,-0.4L0.335,-0.4Z" style="fill:url(#_Linear1);fill-rule:nonzero;"/>
                    </g>
                    <g transform="matrix(47.4085,0,0,87.7899,155.577,70.8632)">
                        <path d="M0.648,-0.708C0.665,-0.708 0.682,-0.699 0.691,-0.684C0.7,-0.669 0.7,-0.651 0.692,-0.635C0.622,-0.498 0.476,-0.215 0.476,-0.215L0.476,-0.05C0.476,-0.022 0.454,0 0.426,0L0.304,0C0.276,0 0.254,-0.022 0.254,-0.05L0.254,-0.215C0.254,-0.215 0.108,-0.498 0.038,-0.635C0.03,-0.651 0.03,-0.669 0.039,-0.684C0.048,-0.699 0.065,-0.708 0.082,-0.708L0.222,-0.708C0.241,-0.708 0.259,-0.696 0.267,-0.679C0.297,-0.612 0.367,-0.457 0.367,-0.457C0.367,-0.457 0.437,-0.612 0.467,-0.679C0.475,-0.696 0.493,-0.708 0.512,-0.708L0.648,-0.708Z" style="fill:url(#_Linear2);fill-rule:nonzero;"/>
                    </g>
                    <g transform="matrix(47.4085,0,0,87.7899,190.185,70.8632)">
                        <path d="M0.629,-0.465C0.629,-0.42 0.619,-0.38 0.598,-0.344C0.577,-0.307 0.547,-0.278 0.506,-0.257C0.466,-0.236 0.417,-0.225 0.36,-0.225L0.272,-0.225L0.272,-0.05C0.272,-0.037 0.267,-0.024 0.257,-0.015C0.248,-0.005 0.235,0 0.222,0L0.1,0C0.072,0 0.05,-0.022 0.05,-0.05L0.05,-0.658C0.05,-0.686 0.072,-0.708 0.1,-0.708L0.36,-0.708C0.447,-0.708 0.513,-0.686 0.56,-0.642C0.606,-0.598 0.629,-0.539 0.629,-0.465ZM0.335,-0.4C0.381,-0.4 0.404,-0.422 0.404,-0.465C0.404,-0.508 0.381,-0.53 0.335,-0.53L0.272,-0.53L0.272,-0.4L0.335,-0.4Z" style="fill:url(#_Linear3);fill-rule:nonzero;"/>
                    </g>
                    <g transform="matrix(47.4085,0,0,87.7899,220.953,70.8632)">
                        <path d="M0.272,-0.531L0.272,-0.444L0.492,-0.444L0.492,-0.277L0.272,-0.277L0.272,-0.177L0.472,-0.177C0.485,-0.177 0.498,-0.172 0.507,-0.162C0.517,-0.153 0.522,-0.14 0.522,-0.127L0.522,-0.05C0.522,-0.037 0.517,-0.024 0.507,-0.015C0.498,-0.005 0.485,0 0.472,-0L0.1,0C0.072,0 0.05,-0.022 0.05,-0.05L0.05,-0.658C0.05,-0.686 0.072,-0.708 0.1,-0.708L0.472,-0.708C0.485,-0.708 0.498,-0.703 0.507,-0.693C0.517,-0.684 0.522,-0.671 0.522,-0.658L0.522,-0.581C0.522,-0.568 0.517,-0.555 0.507,-0.546C0.498,-0.536 0.485,-0.531 0.472,-0.531L0.272,-0.531Z" style="fill:url(#_Linear4);fill-rule:nonzero;"/>
                    </g>
                </g>
                <g transform="matrix(0.474085,0,0,0.877899,142.749,-0.167247)">
                    <text x="2.312px" y="79.899px" style="font-family:'Poppins-Light', 'Poppins';font-weight:300;font-size:100px;fill:white;">.club</text>
                </g>
            </g>
        </g>
    </g>
    <defs>
        <linearGradient id="_Linear1" x1="0" y1="0" x2="1" y2="0" gradientUnits="userSpaceOnUse" gradientTransform="matrix(2.53395,-0.683745,0.19364,0.717625,0.0459269,-0.0121274)"><stop offset="0" style="stop-color:rgb(59,235,185);stop-opacity:1"/><stop offset="0.47" style="stop-color:rgb(77,186,208);stop-opacity:1"/><stop offset="1" style="stop-color:rgb(82,171,215);stop-opacity:1"/></linearGradient>
        <linearGradient id="_Linear2" x1="0" y1="0" x2="1" y2="0" gradientUnits="userSpaceOnUse" gradientTransform="matrix(2.53395,-0.683745,0.19364,0.717625,-0.603061,-0.0121274)"><stop offset="0" style="stop-color:rgb(59,235,185);stop-opacity:1"/><stop offset="0.47" style="stop-color:rgb(77,186,208);stop-opacity:1"/><stop offset="1" style="stop-color:rgb(82,171,215);stop-opacity:1"/></linearGradient>
        <linearGradient id="_Linear3" x1="0" y1="0" x2="1" y2="0" gradientUnits="userSpaceOnUse" gradientTransform="matrix(2.53395,-0.683745,0.19364,0.717625,-1.33305,-0.0121274)"><stop offset="0" style="stop-color:rgb(59,235,185);stop-opacity:1"/><stop offset="0.47" style="stop-color:rgb(77,186,208);stop-opacity:1"/><stop offset="1" style="stop-color:rgb(82,171,215);stop-opacity:1"/></linearGradient>
        <linearGradient id="_Linear4" x1="0" y1="0" x2="1" y2="0" gradientUnits="userSpaceOnUse" gradientTransform="matrix(2.53395,-0.683745,0.19364,0.717625,-1.98204,-0.0121274)"><stop offset="0" style="stop-color:rgb(59,235,185);stop-opacity:1"/><stop offset="0.47" style="stop-color:rgb(77,186,208);stop-opacity:1"/><stop offset="1" style="stop-color:rgb(82,171,215);stop-opacity:1"/></linearGradient>
    </defs>
</svg>
