<?xml version="1.0" encoding="UTF-8" standalone="no"?>
<!DOCTYPE svg PUBLIC "-//W3C//DTD SVG 1.1//EN" "http://www.w3.org/Graphics/SVG/1.1/DTD/svg11.dtd">
<svg width="100%" height="100%" viewBox="0 0 582 151" version="1.1" xmlns="http://www.w3.org/2000/svg" xmlns:xlink="http://www.w3.org/1999/xlink" xml:space="preserve" xmlns:serif="http://www.serif.com/" style="fill-rule:evenodd;clip-rule:evenodd;stroke-linejoin:round;stroke-miterlimit:2;">
    <g transform="matrix(1,0,0,1,-987,-2015)">
        <g id="pypeclub_black" transform="matrix(0.775972,0,0,0.911492,987.586,1477.95)">
            <rect x="0" y="589.923" width="748.802" height="164.565" style="fill:none;"/>
            <g transform="matrix(2.7183,0,0,1.24969,-3.76111,624.796)">
                <g id="PYPE" transform="matrix(1,0,0,1,-105.172,0)">
                    <g transform="matrix(47.4085,0,0,87.7899,124.81,70.8632)">
                        <path d="M0.629,-0.465C0.629,-0.42 0.619,-0.38 0.598,-0.344C0.577,-0.307 0.547,-0.278 0.506,-0.257C0.466,-0.236 0.417,-0.225 0.36,-0.225L0.272,-0.225L0.272,-0.05C0.272,-0.037 0.267,-0.024 0.257,-0.015C0.248,-0.005 0.235,0 0.222,0L0.1,0C0.072,0 0.05,-0.022 0.05,-0.05L0.05,-0.658C0.05,-0.686 0.072,-0.708 0.1,-0.708L0.36,-0.708C0.447,-0.708 0.513,-0.686 0.56,-0.642C0.606,-0.598 0.629,-0.539 0.629,-0.465ZM0.335,-0.4C0.381,-0.4 0.404,-0.422 0.404,-0.465C0.404,-0.508 0.381,-0.53 0.335,-0.53L0.272,-0.53L0.272,-0.4L0.335,-0.4Z" style="fill-rule:nonzero;"/>
                    </g>
                    <g transform="matrix(47.4085,0,0,87.7899,155.577,70.8632)">
                        <path d="M0.648,-0.708C0.665,-0.708 0.682,-0.699 0.691,-0.684C0.7,-0.669 0.7,-0.651 0.692,-0.635C0.622,-0.498 0.476,-0.215 0.476,-0.215L0.476,-0.05C0.476,-0.022 0.454,0 0.426,0L0.304,0C0.276,0 0.254,-0.022 0.254,-0.05L0.254,-0.215C0.254,-0.215 0.108,-0.498 0.038,-0.635C0.03,-0.651 0.03,-0.669 0.039,-0.684C0.048,-0.699 0.065,-0.708 0.082,-0.708L0.222,-0.708C0.241,-0.708 0.259,-0.696 0.267,-0.679C0.297,-0.612 0.367,-0.457 0.367,-0.457C0.367,-0.457 0.437,-0.612 0.467,-0.679C0.475,-0.696 0.493,-0.708 0.512,-0.708L0.648,-0.708Z" style="fill-rule:nonzero;"/>
                    </g>
                    <g transform="matrix(47.4085,0,0,87.7899,190.185,70.8632)">
                        <path d="M0.629,-0.465C0.629,-0.42 0.619,-0.38 0.598,-0.344C0.577,-0.307 0.547,-0.278 0.506,-0.257C0.466,-0.236 0.417,-0.225 0.36,-0.225L0.272,-0.225L0.272,-0.05C0.272,-0.037 0.267,-0.024 0.257,-0.015C0.248,-0.005 0.235,0 0.222,0L0.1,0C0.072,0 0.05,-0.022 0.05,-0.05L0.05,-0.658C0.05,-0.686 0.072,-0.708 0.1,-0.708L0.36,-0.708C0.447,-0.708 0.513,-0.686 0.56,-0.642C0.606,-0.598 0.629,-0.539 0.629,-0.465ZM0.335,-0.4C0.381,-0.4 0.404,-0.422 0.404,-0.465C0.404,-0.508 0.381,-0.53 0.335,-0.53L0.272,-0.53L0.272,-0.4L0.335,-0.4Z" style="fill-rule:nonzero;"/>
                    </g>
                    <g transform="matrix(47.4085,0,0,87.7899,220.953,70.8632)">
                        <path d="M0.272,-0.531L0.272,-0.444L0.492,-0.444L0.492,-0.277L0.272,-0.277L0.272,-0.177L0.472,-0.177C0.485,-0.177 0.498,-0.172 0.507,-0.162C0.517,-0.153 0.522,-0.14 0.522,-0.127L0.522,-0.05C0.522,-0.037 0.517,-0.024 0.507,-0.015C0.498,-0.005 0.485,0 0.472,-0L0.1,0C0.072,0 0.05,-0.022 0.05,-0.05L0.05,-0.658C0.05,-0.686 0.072,-0.708 0.1,-0.708L0.472,-0.708C0.485,-0.708 0.498,-0.703 0.507,-0.693C0.517,-0.684 0.522,-0.671 0.522,-0.658L0.522,-0.581C0.522,-0.568 0.517,-0.555 0.507,-0.546C0.498,-0.536 0.485,-0.531 0.472,-0.531L0.272,-0.531Z" style="fill-rule:nonzero;"/>
                    </g>
                </g>
                <g transform="matrix(0.474085,0,0,0.877899,142.749,-0.167247)">
                    <g transform="matrix(100,0,0,100,2.312,79.8987)">
                        <path d="M0.092,0.005C0.077,0.005 0.065,-0 0.056,-0.01C0.046,-0.02 0.041,-0.032 0.041,-0.047C0.041,-0.062 0.046,-0.074 0.056,-0.084C0.065,-0.093 0.077,-0.098 0.092,-0.098C0.106,-0.098 0.118,-0.093 0.128,-0.084C0.137,-0.074 0.142,-0.062 0.142,-0.047C0.142,-0.032 0.137,-0.02 0.128,-0.01C0.118,-0 0.106,0.005 0.092,0.005Z" style="fill-rule:nonzero;"/>
                    </g>
                    <g transform="matrix(100,0,0,100,20.5107,79.8987)">
                        <path d="M0.048,-0.273C0.048,-0.33 0.059,-0.379 0.082,-0.422C0.105,-0.464 0.136,-0.497 0.176,-0.52C0.216,-0.543 0.262,-0.554 0.313,-0.554C0.38,-0.554 0.436,-0.537 0.48,-0.504C0.523,-0.471 0.551,-0.425 0.564,-0.368L0.489,-0.368C0.48,-0.407 0.46,-0.438 0.429,-0.461C0.398,-0.483 0.359,-0.494 0.313,-0.494C0.276,-0.494 0.243,-0.486 0.214,-0.469C0.185,-0.452 0.162,-0.428 0.145,-0.395C0.128,-0.362 0.119,-0.321 0.119,-0.273C0.119,-0.225 0.128,-0.184 0.145,-0.151C0.162,-0.118 0.185,-0.093 0.214,-0.076C0.243,-0.059 0.276,-0.051 0.313,-0.051C0.359,-0.051 0.398,-0.062 0.429,-0.085C0.46,-0.107 0.48,-0.138 0.489,-0.178L0.564,-0.178C0.551,-0.122 0.523,-0.077 0.479,-0.043C0.435,-0.009 0.38,0.008 0.313,0.008C0.262,0.008 0.216,-0.004 0.176,-0.027C0.136,-0.05 0.105,-0.082 0.082,-0.125C0.059,-0.167 0.048,-0.216 0.048,-0.273Z" style="fill-rule:nonzero;"/>
                    </g>
                    <g transform="matrix(100,0,0,100,81.8095,79.8987)">
                        <rect x="0.08" y="-0.74" width="0.07" height="0.74" style="fill-rule:nonzero;"/>
                    </g>
                    <g transform="matrix(100,0,0,100,104.708,79.8987)">
                        <path d="M0.553,-0.546L0.553,-0L0.483,-0L0.483,-0.096C0.467,-0.062 0.442,-0.036 0.409,-0.018C0.376,-0 0.338,0.009 0.297,0.009C0.232,0.009 0.178,-0.011 0.137,-0.051C0.096,-0.092 0.075,-0.15 0.075,-0.227L0.075,-0.546L0.144,-0.546L0.144,-0.235C0.144,-0.176 0.159,-0.13 0.189,-0.099C0.218,-0.068 0.259,-0.052 0.31,-0.052C0.363,-0.052 0.405,-0.069 0.436,-0.102C0.467,-0.135 0.483,-0.184 0.483,-0.249L0.483,-0.546L0.553,-0.546Z" style="fill-rule:nonzero;"/>
                    </g>
                    <g transform="matrix(100,0,0,100,168.007,79.8987)">
                        <path d="M0.149,-0.425C0.167,-0.463 0.195,-0.494 0.233,-0.518C0.27,-0.542 0.315,-0.554 0.366,-0.554C0.416,-0.554 0.461,-0.543 0.5,-0.52C0.539,-0.497 0.57,-0.464 0.593,-0.422C0.615,-0.379 0.626,-0.33 0.626,-0.274C0.626,-0.218 0.615,-0.169 0.593,-0.126C0.57,-0.083 0.539,-0.05 0.5,-0.027C0.46,-0.004 0.415,0.008 0.366,0.008C0.314,0.008 0.269,-0.004 0.232,-0.028C0.194,-0.051 0.166,-0.082 0.149,-0.12L0.149,-0L0.08,-0L0.08,-0.74L0.149,-0.74L0.149,-0.425ZM0.555,-0.274C0.555,-0.319 0.546,-0.359 0.529,-0.392C0.511,-0.425 0.487,-0.45 0.456,-0.467C0.425,-0.484 0.391,-0.493 0.352,-0.493C0.315,-0.493 0.281,-0.484 0.25,-0.466C0.219,-0.448 0.194,-0.422 0.176,-0.389C0.158,-0.356 0.149,-0.317 0.149,-0.273C0.149,-0.229 0.158,-0.19 0.176,-0.157C0.194,-0.124 0.219,-0.098 0.25,-0.08C0.281,-0.062 0.315,-0.053 0.352,-0.053C0.391,-0.053 0.425,-0.062 0.456,-0.08C0.487,-0.097 0.511,-0.123 0.529,-0.157C0.546,-0.19 0.555,-0.229 0.555,-0.274Z" style="fill-rule:nonzero;"/>
                    </g>
                </g>
            </g>
        </g>
    </g>
</svg>
