<?xml version="1.0" ?><svg enable-background="new 0 0 512 512" id="Layer_1" version="1.1" viewBox="0 0 512 512" xml:space="preserve" xmlns="http://www.w3.org/2000/svg" xmlns:xlink="http://www.w3.org/1999/xlink"><g><g><linearGradient gradientUnits="userSpaceOnUse" id="SVGID_1_" x1="-0.0000027" x2="512" y1="256" y2="256"><stop offset="0" style="stop-color:#F67950"/><stop offset="1" style="stop-color:#F15A29"/></linearGradient><circle cx="256" cy="256" fill="url(#SVGID_1_)" r="256"/><linearGradient gradientUnits="userSpaceOnUse" id="SVGID_2_" x1="42.6666641" x2="469.3333435" y1="256.0005188" y2="256.0005188"><stop offset="0" style="stop-color:#F15A29"/><stop offset="1" style="stop-color:#F67950"/></linearGradient><path d="M256,469.3338623c-117.6314697,0-213.3333435-95.7023926-213.3333435-213.3333435    c0-117.6314545,95.7018661-213.333313,213.3333435-213.333313c117.636261,0,213.3333435,95.7018661,213.3333435,213.333313    C469.3333435,373.6314697,373.636261,469.3338623,256,469.3338623z" fill="url(#SVGID_2_)"/></g><path d="M381.4981384,174.610672h-45.6714783v-21.6021423c0-4.9701233-4.0287781-8.9983978-8.9989319-8.9983978   H201.1704559c-4.9700775,0-8.9992065,4.0282745-8.9992065,8.9983978v21.6021423h-45.6693878v9.9989319h20.962677   l22.7453766,183.5509186c1.1203766,9.0400085,8.801712,15.8288269,17.9104004,15.8288269h111.7570038   c9.1093445,0,16.7904053-6.7888184,17.9109497-15.8288269l22.7456055-183.5509186h20.9642639V174.610672z M221.0897064,351.9584045   l-9.9256592-129.5248108l9.9696655-0.7615967l9.9261322,129.5248108L221.0897064,351.9584045z M268.9985657,351.5776062h-9.9991455   V222.0527954h9.9991455V351.5776062z M306.9077454,351.9584045l-9.9701538-0.7615967l9.9264221-129.5248108l9.969574,0.7615967   L306.9077454,351.9584045z" opacity="0.3"/><path d="M373.4981384,166.610672h-45.6714783v-21.6021423c0-4.9701233-4.0287781-8.9983978-8.9989319-8.9983978   H193.1704559c-4.9700775,0-8.9992523,4.0282745-8.9992523,8.9983978v21.6021423h-45.669342v9.9989319h20.962677   l22.7455902,183.5509186c1.1200104,9.0400085,8.8014984,15.8288269,17.9101868,15.8288269h111.7570038   c9.1093445,0,16.7904053-6.7888184,17.9109497-15.8288269l22.7456055-183.5509186h20.9642639V166.610672z M213.0897064,343.9584045   l-9.9256592-129.5248108l9.9696655-0.7615967l9.9261322,129.5248108L213.0897064,343.9584045z M260.9985657,343.5776062h-9.9991455   V214.0527954h9.9991455V343.5776062z M298.9077454,343.9584045l-9.9700928-0.7615967l9.9263611-129.5248108l9.969574,0.7615967   L298.9077454,343.9584045z" fill="#FFFFFF"/></g></svg>