<?xml version="1.0" ?>
<svg enable-background="new 0 0 512 512" id="Layer_1" version="1.1" viewBox="0 0 512 512" xml:space="preserve" xmlns="http://www.w3.org/2000/svg" xmlns:xlink="http://www.w3.org/1999/xlink">
  <g>
    <g>
      <linearGradient gradientUnits="userSpaceOnUse" id="SVGID_1_" x1="-0.0000027" x2="512" y1="256" y2="256">
        <stop offset="0" style="stop-color:#ffd34e"/>
        <stop offset="1" style="stop-color:#dfa32e"/>
      </linearGradient>
      <circle cx="256" cy="256" fill="url(#SVGID_1_)" r="256"/>
      <linearGradient gradientUnits="userSpaceOnUse" id="SVGID_2_" x1="42.6666641" x2="469.3333435" y1="256.0005188" y2="256.0005188">
        <stop offset="0" style="stop-color:#dfa32e"/>
        <stop offset="1" style="stop-color:#ffd34e"/>
      </linearGradient>
      <path d="M256,469.3338623c-117.6314697,0-213.3333435-95.7023926-213.3333435-213.3333435    c0-117.6314545,95.7018661-213.333313,213.3333435-213.333313c117.6357422,0,213.3333435,95.7018661,213.3333435,213.333313    C469.3333435,373.6314697,373.6357422,469.3338623,256,469.3338623z" fill="url(#SVGID_2_)"/>
    </g><g><path d="M278.319458,234.7162628H156.2111969c-6.7440033,0-12.2111969,5.4677429-12.2111969,12.212265v81.8735962    c0,6.7429504,5.4671936,12.2106628,12.2111969,12.2106628h16.5359955l0.2293396,26.0400085l39.5781403-26.0400085h65.7647858    c6.7440186,0,12.2106628-5.4677124,12.2106628-12.2106628v-81.8735962    C290.5301208,240.1840057,285.0634766,234.7162628,278.319458,234.7162628z M180.6330719,259.4090576h73.2639923v10h-73.2639923    V259.4090576z M253.8970642,317.2357483h-73.2639923v-10h73.2639923V317.2357483z M269.1605225,293.3247986H165.3690643v-10    h103.7914581V293.3247986z" opacity="0.3"/><path d="M371.7893372,160.9472046H249.6810608c-6.743988,0-12.2111969,5.4661255-12.2111969,12.2106628v51.5583954    h40.848526c12.2458801,0,22.211731,9.9664001,22.211731,22.212265v20.3141479h14.915741l39.5776062,26.0394592    l0.2298584-26.0394592h16.5360107c6.7434692,0,12.210144-5.4677429,12.210144-12.2112122v-81.8735962    C383.9994812,166.4133301,378.5328064,160.9472046,371.7893372,160.9472046z M347.366394,243.4618683h-38.7258606v-10h38.7258606    V243.4618683z M362.6298828,219.5503998H258.8384094v-10h103.7914734V219.5503998z M362.6298828,195.6394653H258.8384094v-10    h103.7914734V195.6394653z" opacity="0.3"/></g><g><path d="M270.319458,226.7162628H148.2111969c-6.7440033,0-12.2111969,5.4677429-12.2111969,12.212265v81.8735962    c0,6.7429504,5.4671936,12.2106628,12.2111969,12.2106628h16.5359955l0.2293396,26.0400085l39.5781403-26.0400085h65.7647858    c6.7440186,0,12.2106628-5.4677124,12.2106628-12.2106628v-81.8735962    C282.5301208,232.1840057,277.0634766,226.7162628,270.319458,226.7162628z M172.6330719,251.4090729h73.2639923v9.9999847    h-73.2639923V251.4090729z M245.8970642,309.2357483h-73.2639923v-10h73.2639923V309.2357483z M261.1605225,285.3247986    H157.3690643v-10h103.7914581V285.3247986z" fill="#FFFFFF"/><path d="M363.7893372,152.9472046H241.6810608c-6.743988,0-12.2111969,5.4661255-12.2111969,12.2106628v51.5583954    h40.848526c12.2458801,0,22.211731,9.9664001,22.211731,22.212265v20.3141479h14.915741l39.5776062,26.0394592    l0.2298584-26.0394592h16.5360107c6.7434692,0,12.210144-5.4677429,12.210144-12.2112122v-81.8735962    C375.9994812,158.4133301,370.5328064,152.9472046,363.7893372,152.9472046z M339.366394,235.4618683h-38.7258606v-10h38.7258606    V235.4618683z M354.6298828,211.5503998H250.8383942v-10h103.7914886V211.5503998z M354.6298828,187.6394653H250.8383942v-10    h103.7914886V187.6394653z" fill="#FFFFFF"/></g></g></svg>
