<?xml version="1.0" encoding="UTF-8" standalone="no"?>
<!DOCTYPE svg PUBLIC "-//W3C//DTD SVG 20010904//EN"
              "http://www.w3.org/TR/2001/REC-SVG-20010904/DTD/svg10.dtd">

<svg
    xmlns="http://www.w3.org/2000/svg"
    viewBox="0 0 512 512"
>
    <g>
        <linearGradient gradientUnits="userSpaceOnUse" id="SVGID_1_" x1="-0.0000027" x2="512" y1="256" y2="256">
            <stop offset="0" style="stop-color:#c4ef3f"/>
            <stop offset="1" style="stop-color:#a0ae28"/>
        </linearGradient><circle cx="256" cy="256" fill="url(#SVGID_1_)" r="256"/>
        <linearGradient gradientUnits="userSpaceOnUse" id="SVGID_2_" x1="42.6666641" x2="469.3333435" y1="256.0005188" y2="256.0005188">
            <stop offset="0" style="stop-color:#a0ae28"/>
            <stop offset="1" style="stop-color:#c4ef3f"/>
        </linearGradient>
        <path
            d="
            M   256,469.3338623
            c   -117.6315308,0-213.3333435-95.7023926-213.3333435-213.3333435
            c   0-117.6314545,95.7018051 -213.333313,213.3333435 -213.333313
            c   117.6362,0,213.3333435,95.7018661,213.3333435,213.333313
            C   469.3333435,373.6314697,373.6362,469.3338623,256,469.3338623
            z"
            fill="url(#SVGID_2_)"
        />
    </g>
    <g transform="translate(-80.00 -100.00) scale(0.7)">
        <path id="arrow"
           fill="#666666" stroke="none"
           d="M 368.01,367.07
              C 368.01,367.07 490.00,245.05 490.00,245.05
                490.00,245.05 612.00,367.06 612.00,367.06
                612.00,367.06 551.00,367.06 551.00,367.06
                551.00,367.06 551.00,490.06 551.00,490.06
                551.00,490.06 429.00,490.07 429.00,490.07
                429.00,490.07 429.00,367.07 429.00,367.07
                429.00,367.07 368.01,367.07 368.01,367.07 Z
              M 429.00,521.05
              C 429.00,521.05 429.00,551.07 429.00,551.07
                429.00,551.07 551.00,551.05 551.00,551.05
                551.00,551.05 551.00,521.07 551.00,521.07
                551.00,521.07 429.00,521.05 429.00,521.05 Z
              M 429.00,582.06
              C 429.00,582.06 429.00,612.06 429.00,612.06
                429.00,612.06 551.00,612.07 551.00,612.07
                551.00,612.07 551.00,582.06 551.00,582.06
                551.00,582.06 429.00,582.06 429.00,582.06 Z
              M 429.05,642.96
              C 429.05,642.96 429.04,672.96 429.04,672.96
                429.04,672.96 551.00,673.05 551.00,673.05
                551.00,673.05 551.04,642.96 551.04,642.96
                551.04,642.96 429.05,642.96 429.05,642.96 Z
              M 429.00,705.06
              C 429.00,705.06 429.00,735.06 429.00,735.06
                429.00,735.06 551.00,735.07 551.00,735.07
                551.00,735.07 551.00,705.05 551.00,705.05
                551.00,705.05 429.00,705.06 429.00,705.06 Z"
       />
    </g>
</svg>
