<?xml version="1.0" encoding="UTF-8" standalone="no"?>
<!DOCTYPE svg PUBLIC "-//W3C//DTD SVG 20010904//EN"
              "http://www.w3.org/TR/2001/REC-SVG-20010904/DTD/svg10.dtd">

<svg
    xmlns="http://www.w3.org/2000/svg"
    viewBox="0 0 512 512"
>
    <g>
        <linearGradient gradientUnits="userSpaceOnUse" id="SVGID_1_" x1="-0.0000027" x2="512" y1="256" y2="256">
            <stop offset="0" style="stop-color:#33B49D"/>
            <stop offset="1" style="stop-color:#008165"/>
        </linearGradient><circle cx="256" cy="256" fill="url(#SVGID_1_)" r="256"/>
        <linearGradient gradientUnits="userSpaceOnUse" id="SVGID_2_" x1="42.6666641" x2="469.3333435" y1="256.0005188" y2="256.0005188">
            <stop offset="0" style="stop-color:#008165"/>
            <stop offset="1" style="stop-color:#33B49D"/>
        </linearGradient>
        <path
            d="
            M   256,469.3338623
            c   -117.6315308,0-213.3333435-95.7023926-213.3333435-213.3333435
            c   0-117.6314545,95.7018051 -213.333313,213.3333435 -213.333313
            c   117.6362,0,213.3333435,95.7018661,213.3333435,213.333313
            C   469.3333435,373.6314697,373.6362,469.3338623,256,469.3338623
            z"
            fill="url(#SVGID_2_)"
        />
    </g>
    <g transform="translate(114.00 60.00) scale(0.36)">
        <path id="Selection"
            fill="#fff"
            d="
            M   458.00,960.00
            C   450.88,953.38 442.00,950.89 432.43,939.99
                424.10,930.49 415.98,914.44 409.70,903.00
                409.70,903.00 387.22,863.00 387.22,863.00
                379.45,848.37 368.40,834.14 368.01,817.00
                367.68,802.29 373.94,787.57 384.04,777.00
                388.72,772.10 392.22,768.68 398.00,765.06
                401.36,762.96 406.75,760.75 408.23,756.91
                409.23,754.39 408.04,748.24 408.23,745.00
                408.23,745.00 408.23,728.00 408.23,728.00
                408.77,725.44 409.86,719.43 408.81,717.21
                407.54,714.52 394.42,706.83 391.00,703.82
                378.11,692.49 369.21,677.53 369.00,660.00
                368.74,637.82 378.18,625.54 388.72,607.00
                388.72,607.00 404.58,579.00 404.58,579.00
                419.04,553.47 430.38,524.76 461.00,515.03
                466.51,513.28 473.21,511.81 479.00,512.04
                487.55,512.37 497.34,515.55 505.00,519.26
                508.57,520.99 516.36,525.59 520.00,525.45
                524.42,525.28 536.68,517.19 541.00,514.60
                550.83,508.70 554.24,508.66 553.99,498.00
                553.92,495.14 553.75,492.58 552.15,490.09
                549.35,485.74 533.16,475.67 528.00,472.60
                506.88,460.04 485.49,452.03 462.00,445.29
                452.70,442.62 438.39,438.43 429.00,438.00
                429.00,438.00 429.00,417.00 429.00,417.00
                429.01,414.41 428.81,411.37 430.02,409.02
                432.91,403.42 446.25,397.85 452.00,394.69
                464.79,387.66 485.94,369.70 495.91,359.00
                527.77,324.81 548.67,279.79 552.09,233.00
                552.09,233.00 553.00,223.00 553.00,223.00
                553.00,223.00 553.00,205.00 553.00,205.00
                552.99,196.67 551.62,188.21 550.25,180.00
                542.09,131.16 517.05,84.54 479.00,52.44
                457.48,34.29 433.59,21.86 407.00,13.00
                391.73,7.91 364.92,2.02 349.00,2.00
                349.00,2.00 327.00,2.00 327.00,2.00
                306.93,2.03 274.74,10.01 256.00,17.45
                190.76,43.34 140.60,101.93 127.00,171.00
                125.43,178.97 123.04,195.15 123.00,203.00
                123.00,203.00 123.00,221.00 123.00,221.00
                123.00,221.00 124.87,242.00 124.87,242.00
                130.70,283.98 147.23,322.01 175.29,354.00
                186.40,366.68 200.07,378.48 214.00,387.97
                214.00,387.97 233.00,399.69 233.00,399.69
                237.27,402.07 242.48,404.45 244.83,409.01
                245.92,411.15 246.92,422.15 246.99,425.00
                247.08,429.22 247.31,433.36 243.77,436.35
                240.37,439.23 230.76,440.63 226.00,442.00
                226.00,442.00 202.00,449.66 202.00,449.66
                202.00,449.66 187.00,454.42 187.00,454.42
                158.57,465.16 122.49,483.86 100.00,504.17
                82.80,519.70 68.90,538.95 57.43,559.00
                32.23,603.04 14.06,661.71 7.28,712.00
                4.04,736.04 2.04,760.77 2.00,785.00
                2.00,785.00 1.00,802.00 1.00,802.00
                1.00,802.00 1.00,856.00 1.00,856.00
                1.06,891.28 37.59,906.11 66.00,916.00
                66.00,916.00 83.00,921.86 83.00,921.86
                83.00,921.86 104.00,927.87 104.00,927.87
                152.12,939.98 187.83,945.13 237.00,949.83
                237.00,949.83 256.00,951.17 256.00,951.17
                256.00,951.17 295.00,954.09 295.00,954.09
                295.00,954.09 324.00,956.00 324.00,956.00
                324.00,956.00 343.00,957.00 343.00,957.00
                343.00,957.00 358.00,958.00 358.00,958.00
                358.00,958.00 372.00,958.00 372.00,958.00
                372.00,958.00 387.00,959.00 387.00,959.00
                387.00,959.00 407.00,959.00 407.00,959.00
                407.00,959.00 422.00,960.00 422.00,960.00
                422.00,960.00 458.00,960.00 458.00,960.00
            Z
            M   597.00,494.00
            C   597.00,494.00 597.00,538.00 597.00,538.00
                597.00,540.78 597.21,544.42 595.83,546.89
                593.17,551.65 579.34,555.10 574.00,557.05
                558.16,562.86 541.56,572.75 528.00,582.73
                523.78,585.84 510.63,597.85 507.00,598.67
                502.87,599.60 495.59,594.53 492.00,592.40
                482.64,586.85 468.27,577.41 458.00,575.00
                458.00,575.00 431.72,620.00 431.72,620.00
                431.72,620.00 411.00,658.00 411.00,658.00
                411.00,658.00 459.00,685.00 459.00,685.00
                455.62,697.75 451.98,717.92 452.00,731.00
                452.00,731.00 453.00,751.00 453.00,751.00
                453.13,762.00 455.58,778.56 459.00,789.00
                459.00,789.00 426.00,807.58 426.00,807.58
                422.31,809.67 414.78,813.03 413.21,817.04
                411.47,821.45 420.54,834.72 423.00,839.00
                423.00,839.00 459.00,901.00 459.00,901.00
                459.00,901.00 491.00,882.85 491.00,882.85
                493.72,881.29 501.87,876.24 504.58,876.16
                508.36,876.05 513.34,881.46 516.00,883.84
                522.42,889.55 530.71,896.03 538.00,900.58
                548.81,907.32 560.10,913.34 572.00,917.94
                576.42,919.65 591.11,924.37 593.77,926.65
                597.41,929.75 596.99,933.68 597.00,938.00
                597.00,938.00 597.00,980.00 597.00,980.00
                597.00,980.00 693.00,980.00 693.00,980.00
                693.00,980.00 693.00,926.00 693.00,926.00
                711.77,923.35 741.60,908.84 757.00,897.86
                765.57,891.74 768.35,889.04 776.00,882.17
                778.42,880.00 782.65,876.06 786.00,875.96
                789.74,875.85 797.64,881.49 801.00,883.58
                810.62,889.54 821.70,896.56 832.00,901.00
                832.00,901.00 854.85,861.00 854.85,861.00
                854.85,861.00 880.00,816.00 880.00,816.00
                880.00,816.00 848.00,797.42 848.00,797.42
                844.21,795.25 837.01,791.80 835.03,787.96
                833.22,784.46 835.27,777.88 835.92,774.00
                837.31,765.75 838.99,753.22 839.00,745.00
                839.03,722.99 837.69,706.48 832.00,685.00
                832.00,685.00 879.00,659.00 879.00,659.00
                879.00,659.00 858.30,620.00 858.30,620.00
                858.30,620.00 842.42,592.00 842.42,592.00
                842.42,592.00 832.00,574.00 832.00,574.00
                821.43,577.69 809.70,585.32 800.00,591.20
                796.39,593.39 789.09,598.68 785.00,598.56
                781.12,598.45 776.87,594.02 774.00,591.58
                766.22,584.96 759.75,579.50 751.00,574.06
                739.95,567.20 728.14,561.41 716.00,556.81
                711.43,555.07 699.37,551.65 696.43,548.59
                693.64,545.68 694.01,541.72 694.00,538.00
                694.00,538.00 694.00,494.00 694.00,494.00
                694.00,494.00 597.00,494.00 597.00,494.00
            Z
            M   634.00,619.29
            C   667.81,616.13 706.02,628.51 729.91,653.04
                770.54,694.74 774.57,766.57 737.54,812.00
                725.64,826.59 714.66,834.43 698.00,842.75
                677.41,853.04 660.74,855.26 638.00,855.00
                631.50,854.92 623.34,853.21 617.00,851.63
                583.30,843.20 554.03,820.90 539.31,789.00
                529.16,767.01 527.89,753.66 528.00,730.00
                528.17,693.08 552.71,654.07 584.00,635.45
                600.28,625.76 615.54,622.10 634.00,619.29
            Z
        "
        />
    </g>
</svg>
