<?xml version="1.0" encoding="utf-8"?>
<!-- Generator: Adobe Illustrator 19.0.0, SVG Export Plug-In . SVG Version: 6.00 Build 0)  -->
<svg version="1.1" id="layer" xmlns="http://www.w3.org/2000/svg" xmlns:xlink="http://www.w3.org/1999/xlink" x="0px" y="0px"
	 viewBox="-153 -46 652 652" style="enable-background:new -153 -46 652 652;" xml:space="preserve">
<style type="text/css">
	.st0{fill:#FCB514;}
	.st1{fill:#020000;}
</style>
<g>
	<path class="st0" d="M-83.8,274.3c0.8-0.4,1.4-0.9,2-1.4c1.7-1.7,2.6-4.2,2.6-7.5V261c0-4.3-1-7.2-3-8.8c-1.9-1.5-5.1-2.3-9.7-2.3
		h-25.9c-4.7,0-7.8,0.8-9.7,2.3c-2,1.6-2.9,4.5-2.9,8.8v4.4l12.9,2.4v-6.3h21.9c1.9,0,2.4,0.3,2.4,0.3c0.1,0.1,0.4,0.6,0.4,2.3v2.4
		c0,1.2-0.2,1.8-0.3,2.1c-0.1,0.1-0.7,0.6-2.6,0.6h-16.1v11.2h17.9c1.7,0,2.4,0.3,2.5,0.4c0,0,0.4,0.4,0.4,2.2v3.5
		c0,1.7-0.4,2.1-0.4,2.2c0,0-0.5,0.4-2.5,0.4H-118v-7.1l-13.3,2.8v5.3c0,4.3,1,7.2,2.9,8.8c1.9,1.5,5.1,2.3,9.7,2.3h27.8
		c5,0,8.5-0.9,10.4-2.9c1.9-1.8,2.9-4.8,2.9-9.2v-5C-77.4,280.7-78.7,276.6-83.8,274.3"/>
	<path class="st1" d="M-21.6,274.9c3.4-2,4.3-5.3,4.3-8.1v-5.8c0-5-2.2-11-12.5-11h-42.7v51.3h39.8c13.1,0,15.8-6,15.8-11.1V284
		C-16.9,279.8-18.5,276.7-21.6,274.9 M-58.1,280.5h23.7c2.2,0,2.9,0.3,3,0.4c0.6,0.4,0.7,1.4,0.7,2.2v3.6c0,0.8-0.1,1.8-0.6,2.1
		c-0.2,0.1-0.9,0.4-3,0.4h-23.7V280.5z M-31,267.4c0,0.6,0,1.7-3.4,1.7h-23.7v-8h23.7c3.4,0,3.4,1.2,3.4,1.7V267.4z"/>
	<path class="st1" d="M37.5,249.9H2.3c-5.1,0-8.5,0.9-10.5,2.8c-2.1,1.9-3.1,5.3-3.1,10.3v25.2c0,5,1,8.4,3.1,10.3
		c2,1.9,5.5,2.8,10.5,2.8h35.3c5.1,0,8.5-0.9,10.5-2.8c2.1-1.9,3.1-5.3,3.1-10.3V263c0-5-1-8.4-3.1-10.3
		C46,250.8,42.6,249.9,37.5,249.9 M36.5,288.8H3.2v-26.9h33.3V288.8z"/>
	<polygon class="st1" points="103.8,268.5 72.5,268.5 72.5,249.9 57.9,249.9 57.9,301.2 72.5,301.2 72.5,280.6 103.8,280.6 
		103.8,301.2 118.5,301.2 118.5,249.9 103.8,249.9 	"/>
	<polygon class="st1" points="139.1,280.4 161.2,280.4 161.2,268.7 139.1,268.7 139.1,261.5 177,261.5 177,249.9 124.5,249.9 
		124.5,301.2 177.4,301.2 177.4,288.8 139.1,288.8 	"/>
	<polygon class="st1" points="216.2,277.8 194.5,249.9 183,249.9 183,301.2 195.4,301.2 195.4,271.4 213.4,295.5 217.4,295.5 
		235.2,271.8 235.2,301.2 249,301.2 249,249.9 237.5,249.9 	"/>
	<rect x="254" y="249.9" class="st1" width="14.6" height="51.3"/>
	<path class="st1" d="M301.5,249.9l-29,51.3h15.1l5.6-10.5h28.3l5.8,10.5h16.5l-29.4-51.3H301.5z M314.9,278.7h-15.2l7.7-14.1
		L314.9,278.7z"/>
	<path class="st1" d="M394.5,276.8c0,0.7,0.1,1.9,0.2,3.8c-0.7-0.6-1.5-1.3-2.3-2.1l-34.2-28.6h-10v51.3h13.5v-27.6
		c0-0.9,0-1.9-0.1-3.1c0.3,0.2,0.5,0.4,0.8,0.7l35.2,29.6l0.5,0.4h10v-51.3h-13.5V276.8z"/>
	<path class="st1" d="M465.6,271.3c-2.1-1.9-5.5-2.8-10.6-2.8h-28.2v-6.8h28v5.9l13.3-3.1v-2.4c0-4.6-1.1-7.7-3.3-9.6
		c-2.1-1.8-5.5-2.6-10.3-2.6h-27.2c-5.1,0-8.5,0.9-10.5,2.8c-2.1,1.9-3.1,5.3-3.1,10.3v5.3c0,5,1,8.4,3.1,10.3
		c2,1.9,5.5,2.8,10.5,2.8h28.1v7.5h-30.4v-6.1l-13.3,2.8v2.7c0,5,1,8.4,3.1,10.3c2,1.9,5.5,2.8,10.6,2.8h29.6
		c5.1,0,8.5-0.9,10.6-2.8c2.1-1.9,3.1-5.3,3.1-10.3v-6.6C468.8,276.6,467.7,273.2,465.6,271.3"/>
</g>
</svg>
