<svg viewBox="0 0 240.001 234" xmlns="http://www.w3.org/2000/svg" width="2500" height="2437"><g clip-rule="evenodd" fill-rule="evenodd"><path d="M10 10h220v214H10z" fill="#1f0040"/><g fill="#d291ff"><path d="M0 0v234h240.001V0zm10 10h220.001v214H10z"/><path d="M67.836 132.5l-7.92 29.865c-.166.824-.496 1.135-1.486 1.135H43.746c-.99 0-1.156-.33-.99-1.484l28.379-99.33c.496-1.814.826-3.246.99-8.195 0-.66.33-.99.826-.99h20.955c.658 0 .988.166 1.154.99l31.846 107.689c.164.826 0 1.32-.826 1.32h-16.5c-.824 0-1.32-.311-1.484-.969l-8.25-30.031zM95.9 116.266c-2.805-11.055-9.586-35.301-12.061-47.016h-.164c-2.145 11.715-7.561 31.496-11.686 47.006zm53.605 10.234c.166 13.531 6.602 22.605 21.781 22.605 5.939 0 11.029-.785 16.309-3.096.66-.33 1.156-.164 1.156.66v12.541c0 .99-.33 1.484-.99 1.979-5.279 2.641-11.855 3.795-20.105 3.795-26.399 0-36.3-19.469-36.3-41.25 0-23.594 12.209-42.898 33.661-42.898 21.779 0 29.369 18.314 29.369 33.164 0 4.785-.33 8.746-.824 10.56-.166.824-.496 1.115-1.32 1.279-1.98.33-7.92.66-16.666.66h-26.071zm20.295-13.75c5.115 0 6.932 0 7.426-.164 0-.66.166-1.227.166-1.721 0-5.445-2.641-15.439-13.035-15.439-9.57 0-13.695 8.414-14.686 17.324z"/></g></g></svg>