<?xml version="1.0" encoding="utf-8"?>
<!-- Generator: Adobe Illustrator 23.1.1, SVG Export Plug-In . SVG Version: 6.00 Build 0)  -->
<svg version="1.1" id="Layer_1" xmlns="http://www.w3.org/2000/svg" xmlns:xlink="http://www.w3.org/1999/xlink" x="0px" y="0px"
	 width="110px" height="110px" viewBox="0 0 110 110" style="enable-background:new 0 0 110 110;" xml:space="preserve">
<style type="text/css">
	.st0{display:none;fill:url(#SVGID_1_);}
	.st1{fill:none;}
	.st2{fill:url(#SVGID_2_);}
	.st3{fill:url(#SVGID_3_);}
	.st4{fill:url(#SVGID_4_);}
</style>
<linearGradient id="SVGID_1_" gradientUnits="userSpaceOnUse" x1="55.0313" y1="-97.8" x2="55.0313" y2="3.8" gradientTransform="matrix(1 0 0 -1 0 8)">
	<stop  offset="0" style="stop-color:#00AD4D"/>
	<stop  offset="1.031637e-02" style="stop-color:#03AE4D"/>
	<stop  offset="0.2717" style="stop-color:#40BA44"/>
	<stop  offset="0.5105" style="stop-color:#71C53E"/>
	<stop  offset="0.7191" style="stop-color:#95CC39"/>
	<stop  offset="0.8894" style="stop-color:#AAD036"/>
	<stop  offset="1" style="stop-color:#B2D235"/>
</linearGradient>
<path class="st0" d="M100.9,76.8c0,11.6-9.9,29-37.1,29c-24.2,0-39.1-15.6-39.8-16.3L13.9,80l-1.3-1.1c-0.8-0.8-0.8-2-0.1-2.8
	c0.8-0.8,2-0.8,2.8-0.1l2.5,2.3c0.8,0.8,2.1,0.7,2.8-0.1c0.8-0.8,0.7-2.1-0.1-2.8l-5.2-5.1c-0.8-0.8-0.8-2-0.1-2.8
	c0.8-0.8,2-0.8,2.8-0.1l6.9,6.8c0.8,0.8,2.1,0.7,2.8-0.1c0.8-0.8,0.7-2.1-0.1-2.8l-2.7-2.6c-0.8-0.8-0.8-2-0.1-2.8
	c0.8-0.8,2-0.8,2.8-0.1l0.4,0.4L38.5,76c0.4,0.4,9.8,9.9,25.2,9.9c8.1,0,12.3-2.2,14.4-4.1c2.5-2.3,2.6-4.6,2.6-4.8
	c0-2.1,0-6.5-9.5-9.6c-1.9-0.6-4.2-1.2-6.6-1.9c-13.2-3.9-35.5-10-35.5-31.5c0-10.9,5.2-19.7,14.6-24.9c8-4.4,16.8-4.9,20.2-4.9
	c10.9,0,20.9,3.5,33.6,11.8c4.6,3,5.9,9.2,2.9,13.9c-3,4.6-9.2,5.9-13.9,2.9c-11.5-7.5-17.6-8.6-22.6-8.6c-3,0-7.3,0.6-10.5,2.4
	c-3,1.6-4.2,3.8-4.2,7.3c0,5.3,7.1,8.2,21,12c2.6,0.7,5.1,1.4,7.5,2.2C97.9,54.8,100.9,69,100.9,76.8z M8.6,72.4
	c-0.8,0.8-0.7,2.1,0.1,2.8c0.8,0.8,2.1,0.7,2.8-0.1c0.8-0.8,0.7-2.1-0.1-2.8C10.6,71.5,9.4,71.6,8.6,72.4z M13.5,65.7
	c0.8-0.8,0.7-2.1-0.1-2.8c-0.8-0.8-2.1-0.7-2.8,0.1c-0.8,0.8-0.7,2.1,0.1,2.8C11.5,66.5,12.8,66.5,13.5,65.7z M28.6,85.8
	c0.8-0.8,0.7-2.1-0.1-2.9l-3.1-3c-0.8-0.8-2.1-0.7-2.8,0.1l0,0c-0.8,0.8-0.7,2.1,0.1,2.9l3.1,3C26.6,86.7,27.9,86.7,28.6,85.8
	L28.6,85.8z"/>
<g>
	<rect class="st1" width="110" height="110"/>
	<g>
		
			<linearGradient id="SVGID_2_" gradientUnits="userSpaceOnUse" x1="7.0023" y1="6.2004" x2="7.0023" y2="107.7996" gradientTransform="matrix(1 0 0 -1 0 112)">
			<stop  offset="0" style="stop-color:#009B48"/>
			<stop  offset="9.130284e-02" style="stop-color:#1AA33F"/>
			<stop  offset="0.331" style="stop-color:#57B82A"/>
			<stop  offset="0.5503" style="stop-color:#88C819"/>
			<stop  offset="0.7417" style="stop-color:#ACD30D"/>
			<stop  offset="0.8979" style="stop-color:#C1DA06"/>
			<stop  offset="0.9995" style="stop-color:#C9DD03"/>
		</linearGradient>
		<path class="st2" d="M8.5,65.7c0.8-0.8,0.7-2.1-0.1-2.8c-0.8-0.8-2.1-0.7-2.8,0.1c-0.8,0.8-0.7,2.1,0.1,2.8
			C6.5,66.5,7.8,66.5,8.5,65.7z"/>
		
			<linearGradient id="SVGID_3_" gradientUnits="userSpaceOnUse" x1="5.0023" y1="6.2004" x2="5.0023" y2="107.7996" gradientTransform="matrix(1 0 0 -1 0 112)">
			<stop  offset="0" style="stop-color:#009B48"/>
			<stop  offset="9.130284e-02" style="stop-color:#1AA33F"/>
			<stop  offset="0.331" style="stop-color:#57B82A"/>
			<stop  offset="0.5503" style="stop-color:#88C819"/>
			<stop  offset="0.7417" style="stop-color:#ACD30D"/>
			<stop  offset="0.8979" style="stop-color:#C1DA06"/>
			<stop  offset="0.9995" style="stop-color:#C9DD03"/>
		</linearGradient>
		<path class="st3" d="M6.4,72.3c-0.8-0.8-2.1-0.7-2.8,0.1c-0.8,0.8-0.7,2.1,0.1,2.8c0.8,0.8,2.1,0.7,2.8-0.1
			C7.3,74.3,7.2,73,6.4,72.3z"/>
		
			<linearGradient id="SVGID_4_" gradientUnits="userSpaceOnUse" x1="51.9033" y1="6.2" x2="51.9033" y2="107.8" gradientTransform="matrix(1 0 0 -1 0 112)">
			<stop  offset="0" style="stop-color:#009B48"/>
			<stop  offset="9.130284e-02" style="stop-color:#1AA33F"/>
			<stop  offset="0.331" style="stop-color:#57B82A"/>
			<stop  offset="0.5503" style="stop-color:#88C819"/>
			<stop  offset="0.7417" style="stop-color:#ACD30D"/>
			<stop  offset="0.8979" style="stop-color:#C1DA06"/>
			<stop  offset="0.9995" style="stop-color:#C9DD03"/>
		</linearGradient>
		<path class="st4" d="M95.9,76.8c0-7.8-3-22-23.3-28.7c-2.4-0.8-4.9-1.5-7.5-2.2c-13.9-3.8-21-6.7-21-12c0-3.5,1.2-5.7,4.2-7.3
			c3.2-1.8,7.5-2.4,10.5-2.4c5,0,11.1,1.1,22.6,8.6c4.6,3,10.9,1.7,13.9-2.9S97,19,92.4,16C79.7,7.7,69.7,4.2,58.8,4.2h-0.1
			c-3.4,0-12.2,0.5-20.2,4.9c-9.4,5.2-14.6,14-14.6,24.9c0,21.5,22.4,27.6,35.7,31.4c2.4,0.7,4.7,1.3,6.6,1.9
			c9.5,3.1,9.5,7.5,9.5,9.6c0,0.2-0.1,2.5-2.6,4.8c-2.1,1.9-6.3,4.1-14.4,4.1c-15.4,0-24.8-9.5-25.2-9.9L23,66.1l-0.4-0.4
			c-0.8-0.7-2-0.7-2.8,0.1c-0.7,0.8-0.7,2,0.1,2.8l2.7,2.6c0.8,0.7,0.9,2,0.1,2.8c-0.7,0.8-2,0.9-2.8,0.1L13,67.3
			c-0.8-0.7-2-0.7-2.8,0.1c-0.7,0.8-0.7,2,0.1,2.8l5.1,5.2c0.8,0.7,0.9,2,0.1,2.8c-0.7,0.8-2,0.9-2.8,0.1L10.3,76
			c-0.8-0.7-2-0.7-2.8,0.1c-0.7,0.8-0.7,2,0.1,2.8L8.9,80L19,89.5c0.7,0.7,15.6,16.3,39.8,16.3l0,0C86,105.8,95.9,88.4,95.9,76.8z
			 M23.6,85.8c-0.7,0.9-2,0.9-2.8,0.1l-3.1-3c-0.8-0.8-0.9-2.1-0.1-2.9c0.7-0.8,2-0.9,2.8-0.1l3.1,3C24.3,83.7,24.4,85,23.6,85.8z"
			/>
	</g>
</g>
</svg>
