<?xml version="1.0" encoding="utf-8"?>
<!-- Generator: Adobe Illustrator 25.3.1, SVG Export Plug-In . SVG Version: 6.00 Build 0)  -->
<svg version="1.1" id="Layer_1" xmlns="http://www.w3.org/2000/svg" xmlns:xlink="http://www.w3.org/1999/xlink" x="0px" y="0px"
	 viewBox="0 0 1341 216" style="enable-background:new 0 0 1341 216;" xml:space="preserve">
<style type="text/css">
	.st0{fill:#000000;}
</style>
<g>
	<path class="st0" d="M132,0.3l0,18l47,81.1c3.9,7.3,2.3,16.6-4.2,22.2c-7.6,6.5-19,5.7-25.6-1.9c-0.9-1-2.2-3.2-2.2-3.2L79.7,0.3
		H39.3C17.8,0.3,0.4,17.7,0.4,39.2L0.3,215.8h83.8l0-17.9l-46.3-80.1c-4.6-7.4-3.3-17.3,3.4-23.2c5.5-4.9,13.6-5.7,20.2-2.5
		c4,1.9,6.4,4.7,8.1,7.9l66.8,115.8h40.3c21.5,0,38.9-17.4,38.9-38.9V0.3H132z"/>
	<path class="st0" d="M367.8,0.3H227.6v176c0,21.8,17.7,39.5,39.5,39.5h140.2v-176C407.3,18,389.6,0.3,367.8,0.3z M350,191.9
		c-10.1,0-18.9-5.5-23.5-13.7l0,0L261.8,66.4c-2.9-4.3-4.6-9.5-4.6-15.1c0-14.9,12.1-27,27-27c10.7,0,20,6.2,24.3,15.3l0,0
		l64.4,111.3c0.3,0.4,0.5,0.8,0.7,1.3l0.1,0.1l0,0c2,3.8,3.2,8.1,3.2,12.7C377,179.8,364.9,191.9,350,191.9z"/>
	<path class="st0" d="M984.5,0.3H844.3v176c0,21.8,17.7,39.5,39.5,39.5H1024v-176C1024,18,1006.3,0.3,984.5,0.3z M966.7,191.9
		c-10.1,0-18.9-5.5-23.5-13.7l0,0L878.6,66.4c-2.9-4.3-4.6-9.5-4.6-15.1c0-14.9,12.1-27,27-27c10.7,0,20,6.2,24.3,15.3l0,0
		l64.2,111.3c0.3,0.4,0.5,0.8,0.7,1.3l0.1,0.1l0,0c2,3.8,3.2,8.1,3.2,12.7C993.7,179.8,981.6,191.9,966.7,191.9z"/>
	<path class="st0" d="M554.5,96.5v17.9l28.7,49.7c0.3,0.4,0.5,0.8,0.7,1.3l0.1,0.2l0,0c1.2,2.4,1.9,5.2,1.9,8.1
		c0,10-8.1,18.1-18.1,18.1c-6.3,0-11.8-3.2-15.1-8l0,0l-0.7-1.3c-0.1-0.1-0.1-0.2-0.2-0.3L497.4,88l0,0c-1.8-2.8-2.8-6.1-2.8-9.7
		c0-10,8.1-18.1,18.1-18.1c0,0,0,0,0,0h95c14.9,0,26.9-12.1,26.9-26.9V0.3H529.2c0,0,0,0,0,0c-50,0-90.8,40-91.9,89.8l0,0v35.9l0,0
		c1.2,49.8,41.9,89.7,91.9,89.7h0h105.5V96.5H554.5z"/>
	<path class="st0" d="M748.6,0.3l0,18.2l26,45.1c1.3,2.5,2.1,5.4,2.1,8.4c0,10-8.1,18.1-18.1,18.1h-29.5c-10,0-18.1-8.1-18.1-18.1
		V0.3h-64.2v215.5h83.8l0-17.9l-26.4-45.7c-1.3-2.5-2-5.3-2-8.2c0-10,8.1-18.1,18.1-18.1c0,0,0,0,0,0h29.5c0,0,0,0,0,0
		c10,0,18.1,8.1,18.1,18.1l0,71.9h64.5V0.3H748.6z"/>
	<path class="st0" d="M1269.1,60.2c0.1,0,71.6,0,71.6,0v-33c0-14.9-12.1-26.9-26.9-26.9h-93.7c-1.2,0-2.4,0-3.6,0
		c-123.6,0-149.9,0-154.1,0c-14.9,0-26.9,12.1-26.9,26.9c0,5.3,1.6,10.3,4.2,14.5l71.2,123.3c1.4,2.6,2.3,5.6,2.3,8.8
		c0,10-8.1,18.1-18.1,18.1c-6.6,0-12.4-3.6-15.6-8.9l-15.7-27.1h-28.3v59.9h134.5c14.9,0,26.9-12.1,26.9-26.9c0-5-1.4-9.8-3.8-13.8
		l-71.5-123.7l0,0c-1.5-2.6-2.3-5.6-2.3-8.8c0-10,8.1-18.1,18.1-18.1c7.2,0,13.4,4.2,16.4,10.3l14.8,25.4h40.4v155.6h83.8l-0.1-60.6
		l-39.5-68c-1.5-2.6-2.3-5.6-2.3-8.8C1251,68.3,1259.1,60.2,1269.1,60.2z"/>
</g>
</svg>
