<svg xmlns="http://www.w3.org/2000/svg" viewBox="0 0 321.29 41.97">
    <defs>
        <style>
            .cls-1 {
                fill: #000000;
            }
        </style>
    </defs>
    <title>Asset 1</title>
    <g id="Layer_2" data-name="Layer 2">
        <g id="Layer_1-2" data-name="Layer 1">
            <path class="cls-1"
                d="M0,41.35V15.55H7.1v2.08a10.49,10.49,0,0,1,7.1-2.7h1.69L14.2,22H13.13a5.9,5.9,0,0,0-6,5.69V41.35Z" />
            <path class="cls-1"
                d="M32.51,42a11.78,11.78,0,0,1-4.9-1.12,12.51,12.51,0,0,1-4.05-2.93A13.53,13.53,0,0,1,20.12,30,13.21,13.21,0,0,1,20,28.45,15.26,15.26,0,0,1,20.46,25,12.4,12.4,0,0,1,23.56,19a12.8,12.8,0,0,1,4.05-3,11.26,11.26,0,0,1,5-1.07,11.11,11.11,0,0,1,5,1.07,11.86,11.86,0,0,1,4,3A13.3,13.3,0,0,1,44.74,25a13.62,13.62,0,0,1,.39,3.49v1.3H26.2l.06.39c.73,3.5,3.38,6,6.31,6h.06a8.72,8.72,0,0,0,4.5-2l.62-.5,4.68,4-.85.73a11.31,11.31,0,0,1-2.25,1.69h-.06A13.42,13.42,0,0,1,32.57,42ZM27,24.73l-.22.45H38.43l-.23-.45a6.66,6.66,0,0,0-5.63-3.88A6.58,6.58,0,0,0,27,24.73Z" />
            <path class="cls-1"
                d="M54.77,38a13.47,13.47,0,0,1,0-19A13.33,13.33,0,0,1,64.3,15a9.23,9.23,0,0,1,6.36,2.54l.28.22V0h6.82V41.35H70.94v-2l-.28.28a8.48,8.48,0,0,1-6.36,2.25A13.54,13.54,0,0,1,54.77,38Zm2.88-9.52a6.65,6.65,0,1,0,6.65-6.82A6.81,6.81,0,0,0,57.65,28.45Z" />
            <path class="cls-1"
                d="M118.35,41.35l-9-11.43-2.31,2.36v9.07H99.76V0h7.32V22.37l7.1-6.82h10l-9.69,9.24,12.68,16.56Z" />
            <path class="cls-1"
                d="M151.2,41.35V27.55a5.39,5.39,0,0,0-5.46-5.41,5.5,5.5,0,0,0-5.47,5.41v13.8h-7V15.55h7v1.86A7.45,7.45,0,0,1,145.74,15,12.41,12.41,0,0,1,158.3,27.55v13.8Z" />
            <path class="cls-1"
                d="M167.83,38.59a11.43,11.43,0,0,1-3.55-8.39V15.55h7.1V30.2a4.85,4.85,0,0,0,5,4.79,4.91,4.91,0,0,0,5-4.79V15.55h7.1V30.2a11.69,11.69,0,0,1-3.61,8.39,12.39,12.39,0,0,1-17,0Z" />
            <path class="cls-1"
                d="M198.37,38l-.06-.06a13.54,13.54,0,0,1-3.89-9.52A13.27,13.27,0,0,1,207.89,15a13,13,0,0,1,9.52,3.88,18.78,18.78,0,0,1,1.41,1.58l.67,1L214,25.58l-.78-1.07a6.67,6.67,0,1,0-5.3,10.82,6.69,6.69,0,0,0,5.3-3l.73-1,5.74,4.11-.84,1.07a3.43,3.43,0,0,1-.45.51c-.28.34-.62.73-1,1.07a13.37,13.37,0,0,1-9.52,3.89A13.54,13.54,0,0,1,198.37,38Z" />
            <path class="cls-1"
                d="M244.23,41.35l-9-11.43L233,32.28v9.07h-7.32V0H233V22.37l7.1-6.82h10l-9.69,9.24L253,41.35Z" />
            <path class="cls-1" d="M258.18,41.35V0h7.32V41.35Z" />
            <path class="cls-1"
                d="M284,42a11.78,11.78,0,0,1-4.9-1.12A12.65,12.65,0,0,1,275,37.92,13.58,13.58,0,0,1,271.59,30a13.21,13.21,0,0,1-.11-1.58,14.72,14.72,0,0,1,.45-3.49A12.47,12.47,0,0,1,275,19a13,13,0,0,1,4.06-3A11.26,11.26,0,0,1,284,15a11.11,11.11,0,0,1,5,1.07,11.86,11.86,0,0,1,4.05,3A13.3,13.3,0,0,1,296.21,25a13.62,13.62,0,0,1,.39,3.49v1.3H277.67l.06.39c.73,3.5,3.38,6,6.31,6h.06a8.72,8.72,0,0,0,4.5-2l.62-.5,4.68,4-.85.73a11.31,11.31,0,0,1-2.25,1.69h-.06A13.42,13.42,0,0,1,284,42Zm-5.52-17.24-.22.45H289.9l-.23-.45A6.66,6.66,0,0,0,284,20.85,6.58,6.58,0,0,0,278.46,24.73Z" />
            <path class="cls-1"
                d="M309.06,41.3a16.19,16.19,0,0,1-7.55-3.66l-.84-.68,4.22-4.68.79.74a9,9,0,0,0,5.8,2.47,4.79,4.79,0,0,0,2.31-.45A1.71,1.71,0,0,0,315,33.35c0-.67-.39-1.52-3.72-2.08a23.24,23.24,0,0,1-5.86-1.75,7.59,7.59,0,0,1-2.81-2.7,7.27,7.27,0,0,1,.34-7.95,8.41,8.41,0,0,1,3.38-2.7,10.19,10.19,0,0,1,4.5-.9,17.42,17.42,0,0,1,1.81.11,15.6,15.6,0,0,1,7,3l.85.68-4,4.62-.79-.62A7.43,7.43,0,0,0,311,21.24a4.87,4.87,0,0,0-2,.39A2,2,0,0,0,307.88,23c0,.79.56,1.36,3.49,2a35,35,0,0,1,5.86,1.69,8.53,8.53,0,0,1,2.82,2.37,7.76,7.76,0,0,1-.06,8.51,9.14,9.14,0,0,1-3.61,3,11.13,11.13,0,0,1-4.67,1A16.17,16.17,0,0,1,309.06,41.3Z" />
        </g>
    </g>
</svg>