<?xml version="1.0" encoding="UTF-8" standalone="no"?>
<!DOCTYPE svg PUBLIC "-//W3C//DTD SVG 1.1//EN" "http://www.w3.org/Graphics/SVG/1.1/DTD/svg11.dtd">
<svg width="100%" height="100%" viewBox="0 0 1103 707" version="1.1" xmlns="http://www.w3.org/2000/svg" xmlns:xlink="http://www.w3.org/1999/xlink" xml:space="preserve" xmlns:serif="http://www.serif.com/" style="fill-rule:evenodd;clip-rule:evenodd;stroke-miterlimit:10;">
    <g opacity="0.1">
        <g transform="matrix(1,0,0,1,-48.1,-96.1)">
            <path d="M673.12,122.89C673.12,278.99 771.05,405.3 892.12,405.3" style="fill:rgb(56,211,159);fill-rule:nonzero;"/>
        </g>
    </g>
    <g transform="matrix(1,0,0,1,-48.1,-96.1)">
        <path d="M675.52,226.13C604.77,226.67 536.79,210.68 471.79,192.86C406.79,175.04 342.32,155 273,146.82C228.38,141.55 177.6,142.38 142.53,162.82C108.78,182.48 98.79,214.71 93.86,244.45C90.15,266.83 88.34,290.31 101.4,310.67C110.42,324.8 126,336.4 137,349.86C175.26,396.69 151.53,456.96 113.59,505.37C95.8,528.08 74.99,549.87 61.49,573.85C47.99,597.83 42.31,624.95 55.7,648.45C68.98,671.73 99.24,688.45 131.79,699.9C197.92,723 275,727.6 350.05,729.06C516.19,732.31 682.76,722.43 848.88,712.56C910.35,708.9 972.1,705.22 1032.36,695.41C1065.82,689.96 1100.28,681.97 1124.1,664.8C1154.35,643 1160.78,607.69 1139.1,582.47C1102.73,540.18 1006.1,532.79 980.1,486.94C965.79,461.7 978.53,432.57 997.1,408.02C1037.04,355.38 1105.45,308.02 1107.1,249.4C1108.2,209.15 1073.1,170.12 1020.42,152.97C965.17,134.97 889.63,140.18 850.57,174.58C810.34,210 738,225.66 675.52,226.13Z" style="fill:rgb(56,211,159);fill-opacity:0.1;fill-rule:nonzero;"/>
    </g>
    <g transform="matrix(1,0,0,1,-48.1,-96.1)">
        <path d="M995,127.29L995,645.7C995,661.12 980.12,673.7 961.76,673.7L258.34,673.7C239.98,673.7 225.11,661.16 225.11,645.7L225.11,127.29C225.11,111.84 239.98,96.1 258.34,96.1L961.67,97.81C980,97.81 995,111.84 995,127.29Z" style="fill:white;fill-rule:nonzero;"/>
    </g>
    <g transform="matrix(1,0,0,1,-48.1,-96.1)">
        <path d="M995,127.45L995,151.45L225.11,151.45L225.11,127.45C225.11,110.256 239.256,96.105 256.45,96.1L963.6,96.1C963.613,96.1 963.627,96.1 963.64,96.1C980.84,96.1 994.995,110.25 995,127.45Z" style="fill:rgb(63,61,86);fill-rule:nonzero;"/>
    </g>
    <circle cx="214.3" cy="27.67" r="11.08" style="fill:rgb(250,89,89);fill-opacity:0.8;"/>
    <circle cx="246.53" cy="27.67" r="11.08" style="fill:rgb(254,210,83);fill-opacity:0.8;"/>
    <circle cx="278.76" cy="27.67" r="11.08" style="fill:rgb(140,207,77);fill-opacity:0.8;"/>
    <path d="M527.01,179.27C527.01,174.54 523.17,170.7 518.44,170.7L465.57,170.7C460.84,170.7 457,174.54 457,179.27L457,195.35C457,200.08 460.84,203.92 465.57,203.92L518.44,203.92C523.17,203.92 527.01,200.08 527.01,195.35L527.01,179.27Z" style="fill:rgb(56,211,159);fill-opacity:0.2;"/>
    <path d="M668.85,179.27C668.85,174.54 665.01,170.7 660.28,170.7L607.41,170.7C602.68,170.7 598.84,174.54 598.84,179.27L598.84,195.35C598.84,200.08 602.68,203.92 607.41,203.92L660.28,203.92C665.01,203.92 668.85,200.08 668.85,195.35L668.85,179.27Z" style="fill:rgb(56,211,159);fill-opacity:0.2;"/>
    <path d="M491.81,203.17L561.89,294.68L634.08,202.74" style="fill:none;fill-rule:nonzero;stroke:rgb(63,61,86);stroke-width:1px;"/>
    <path d="M615.4,300.32C615.4,295.59 611.56,291.75 606.83,291.75L516.94,291.75C512.21,291.75 508.37,295.59 508.37,300.32L508.37,333.97C508.37,338.7 512.21,342.54 516.94,342.54L606.83,342.54C611.56,342.54 615.4,338.7 615.4,333.97L615.4,300.32Z" style="fill-opacity:0.1;"/>
    <path d="M613.23,301.36C613.23,296.63 609.39,292.79 604.66,292.79L519.12,292.79C514.39,292.79 510.55,296.63 510.55,301.36L510.55,332.95C510.55,337.68 514.39,341.52 519.12,341.52L604.66,341.52C609.39,341.52 613.23,337.68 613.23,332.95L613.23,301.36Z" style="fill:rgb(56,211,159);"/>
    <path d="M492.29,170.7L491.38,138.35" style="fill:none;fill-rule:nonzero;stroke:rgb(63,61,86);stroke-width:1px;"/>
    <path d="M675.22,139.93L634.08,170.7L590.81,139.93" style="fill:none;fill-rule:nonzero;stroke:rgb(63,61,86);stroke-width:1px;"/>
    <path d="M526.62,115.27C526.62,110.54 522.78,106.7 518.05,106.7L465.18,106.7C460.45,106.7 456.61,110.54 456.61,115.27L456.61,131.35C456.61,136.08 460.45,139.92 465.18,139.92L518.05,139.92C522.78,139.92 526.62,136.08 526.62,131.35L526.62,115.27Z" style="fill:rgb(56,211,159);fill-opacity:0.2;"/>
    <path d="M710.22,115.27C710.22,110.54 706.38,106.7 701.65,106.7L648.78,106.7C644.05,106.7 640.21,110.54 640.21,115.27L640.21,131.35C640.21,136.08 644.05,139.92 648.78,139.92L701.65,139.92C706.38,139.92 710.22,136.08 710.22,131.35L710.22,115.27Z" style="fill:rgb(56,211,159);fill-opacity:0.2;"/>
    <path d="M625.82,115.27C625.82,110.54 621.98,106.7 617.25,106.7L564.38,106.7C559.65,106.7 555.81,110.54 555.81,115.27L555.81,131.35C555.81,136.08 559.65,139.92 564.38,139.92L617.25,139.92C621.98,139.92 625.82,136.08 625.82,131.35L625.82,115.27Z" style="fill:rgb(56,211,159);fill-opacity:0.2;"/>
    <path d="M561.89,341.51L561.62,430.01" style="fill:none;fill-rule:nonzero;stroke:rgb(63,61,86);stroke-width:1px;"/>
    <path d="M462.42,493.11L561.42,462.48L660.82,492.89" style="fill:none;fill-rule:nonzero;stroke:rgb(63,61,86);stroke-width:1px;"/>
    <path d="M596.63,438.58C596.63,433.85 592.79,430.01 588.06,430.01L535.19,430.01C530.46,430.01 526.62,433.85 526.62,438.58L526.62,454.66C526.62,459.39 530.46,463.23 535.19,463.23L588.06,463.23C592.79,463.23 596.63,459.39 596.63,454.66L596.63,438.58Z" style="fill:rgb(56,211,159);fill-opacity:0.2;"/>
    <g transform="matrix(-3.82857e-16,1,-1,-3.82857e-16,1210.51,-631.25)">
        <path d="M931.89,353.69C931.89,348.96 928.05,345.12 923.32,345.12L870.45,345.12C865.72,345.12 861.88,348.96 861.88,353.69L861.88,369.77C861.88,374.5 865.72,378.34 870.45,378.34L923.32,378.34C928.05,378.34 931.89,374.5 931.89,369.77L931.89,353.69Z" style="fill:rgb(56,211,159);fill-opacity:0.2;"/>
    </g>
    <g transform="matrix(-3.82857e-16,-1,1,-3.82857e-16,377.41,1272.15)">
        <path d="M931.89,463.33C931.89,458.6 928.05,454.76 923.32,454.76L870.45,454.76C865.72,454.76 861.88,458.6 861.88,463.33L861.88,479.41C861.88,484.14 865.72,487.98 870.45,487.98L923.32,487.98C928.05,487.98 931.89,484.14 931.89,479.41L931.89,463.33Z" style="fill:rgb(56,211,159);fill-opacity:0.2;"/>
    </g>
    <path d="M695.83,501.23C695.83,496.5 691.99,492.66 687.26,492.66L634.39,492.66C629.66,492.66 625.82,496.5 625.82,501.23L625.82,517.31C625.82,522.04 629.66,525.88 634.39,525.88L687.26,525.88C691.99,525.88 695.83,522.04 695.83,517.31L695.83,501.23Z" style="fill:rgb(56,211,159);fill-opacity:0.2;"/>
    <g transform="matrix(-1,7.65714e-16,-7.65714e-16,-1,972.95,1114.65)">
        <path d="M545.53,597.33C545.53,592.6 541.69,588.76 536.96,588.76L484.09,588.76C479.36,588.76 475.52,592.6 475.52,597.33L475.52,613.41C475.52,618.14 479.36,621.98 484.09,621.98L536.96,621.98C541.69,621.98 545.53,618.14 545.53,613.41L545.53,597.33Z" style="fill:rgb(56,211,159);fill-opacity:0.2;"/>
    </g>
    <g transform="matrix(-1,7.65714e-16,-7.65714e-16,-1,1174.83,1114.65)">
        <path d="M646.47,597.33C646.47,592.6 642.63,588.76 637.9,588.76L585.03,588.76C580.3,588.76 576.46,592.6 576.46,597.33L576.46,613.41C576.46,618.14 580.3,621.98 585.03,621.98L637.9,621.98C642.63,621.98 646.47,618.14 646.47,613.41L646.47,597.33Z" style="fill:rgb(56,211,159);fill-opacity:0.2;"/>
    </g>
    <path d="M801,320.45L832.16,374.94" style="fill:none;fill-rule:nonzero;stroke:rgb(63,61,86);stroke-width:1px;"/>
    <path d="M735.11,319.78L767.82,319.78" style="fill:none;fill-rule:nonzero;stroke:rgb(63,61,86);stroke-width:1px;"/>
    <path d="M613.23,317.15L702.51,319.78" style="fill:none;fill-rule:nonzero;stroke:rgb(63,61,86);stroke-width:1px;"/>
    <path d="M832.16,265.63L801.15,320.21" style="fill:none;fill-rule:nonzero;stroke:rgb(63,61,86);stroke-width:1px;"/>
    <g transform="matrix(-3.82857e-16,1,-1,-3.82857e-16,1134.8,-447.65)">
        <path d="M802.23,407.64C802.23,402.91 798.39,399.07 793.66,399.07L740.79,399.07C736.06,399.07 732.22,402.91 732.22,407.64L732.22,423.72C732.22,428.45 736.06,432.29 740.79,432.29L793.66,432.29C798.39,432.29 802.23,428.45 802.23,423.72L802.23,407.64Z" style="fill:rgb(56,211,159);fill-opacity:0.2;"/>
    </g>
    <g transform="matrix(-3.82857e-16,1,-1,-3.82857e-16,1200.94,-512.04)">
        <path d="M867.49,408.51C867.49,403.78 863.65,399.94 858.92,399.94L806.05,399.94C801.32,399.94 797.48,403.78 797.48,408.51L797.48,424.59C797.48,429.32 801.32,433.16 806.05,433.16L858.92,433.16C863.65,433.16 867.49,429.32 867.49,424.59L867.49,408.51Z" style="fill:rgb(56,211,159);fill-opacity:0.2;"/>
    </g>
    <g transform="matrix(-3.82857e-16,1,-1,-3.82857e-16,636.73,-57.48)">
        <path d="M358.11,353.69C358.11,348.96 354.27,345.12 349.54,345.12L296.67,345.12C291.94,345.12 288.1,348.96 288.1,353.69L288.1,369.77C288.1,374.5 291.94,378.34 296.67,378.34L349.54,378.34C354.27,378.34 358.11,374.5 358.11,369.77L358.11,353.69Z" style="fill:rgb(56,211,159);fill-opacity:0.2;"/>
    </g>
    <g transform="matrix(-3.82857e-16,-1,1,-3.82857e-16,-196.37,698.37)">
        <path d="M358.11,463.33C358.11,458.6 354.27,454.76 349.54,454.76L296.67,454.76C291.94,454.76 288.1,458.6 288.1,463.33L288.1,479.41C288.1,484.14 291.94,487.98 296.67,487.98L349.54,487.98C354.27,487.98 358.11,484.14 358.11,479.41L358.11,463.33Z" style="fill:rgb(56,211,159);fill-opacity:0.2;"/>
    </g>
    <path d="M322.78,320.45L291.61,374.94" style="fill:none;fill-rule:nonzero;stroke:rgb(63,61,86);stroke-width:1px;"/>
    <path d="M388.66,319.78L355.96,319.78" style="fill:none;fill-rule:nonzero;stroke:rgb(63,61,86);stroke-width:1px;"/>
    <path d="M510.55,317.15L421.27,319.78" style="fill:none;fill-rule:nonzero;stroke:rgb(63,61,86);stroke-width:1px;"/>
    <path d="M291.61,265.63L322.62,320.21" style="fill:none;fill-rule:nonzero;stroke:rgb(63,61,86);stroke-width:1px;"/>
    <g transform="matrix(-3.82857e-16,1,-1,-3.82857e-16,820.34,-133.18)">
        <path d="M487.77,407.64C487.77,402.91 483.93,399.07 479.2,399.07L426.33,399.07C421.6,399.07 417.76,402.91 417.76,407.64L417.76,423.72C417.76,428.45 421.6,432.29 426.33,432.29L479.2,432.29C483.93,432.29 487.77,428.45 487.77,423.72L487.77,407.64Z" style="fill:rgb(56,211,159);fill-opacity:0.2;"/>
    </g>
    <g transform="matrix(-3.82857e-16,1,-1,-3.82857e-16,755.94,-67.05)">
        <path d="M422.5,408.51C422.5,403.78 418.66,399.94 413.93,399.94L361.06,399.94C356.33,399.94 352.49,403.78 352.49,408.51L352.49,424.59C352.49,429.32 356.33,433.16 361.06,433.16L413.93,433.16C418.66,433.16 422.5,429.32 422.5,424.59L422.5,408.51Z" style="fill:rgb(56,211,159);fill-opacity:0.2;"/>
    </g>
    <g transform="matrix(1,0,0,1,-48.1,-96.1)">
        <path d="M156.12,598C156.12,648.24 187.64,688.9 226.59,688.9" style="fill:rgb(70,69,91);fill-rule:nonzero;"/>
    </g>
    <g transform="matrix(1,0,0,1,-48.1,-96.1)">
        <path d="M226.59,688.89C226.59,638.08 261.77,596.97 305.24,596.97" style="fill:rgb(56,211,159);fill-rule:nonzero;"/>
    </g>
    <g transform="matrix(1,0,0,1,-48.1,-96.1)">
        <path d="M181.66,602.55C181.66,650.27 201.76,688.89 226.59,688.89" style="fill:rgb(56,211,159);fill-rule:nonzero;"/>
    </g>
    <g transform="matrix(1,0,0,1,-48.1,-96.1)">
        <path d="M226.59,688.89C226.59,623.97 267.25,571.44 317.49,571.44" style="fill:rgb(70,69,91);fill-rule:nonzero;"/>
    </g>
    <ellipse cx="175.43" cy="607.19" rx="17.52" ry="2.96" style="fill:rgb(56,211,159);fill-opacity:0.1;"/>
    <g transform="matrix(1,0,0,1,-48.1,-96.1)">
        <path d="M211.77,689.53C211.77,689.53 221.77,689.22 224.77,687.08C227.77,684.94 240.14,682.37 240.89,685.81C241.64,689.25 255.89,702.92 244.62,703.01C233.35,703.1 218.4,701.25 215.4,699.42C212.4,697.59 211.77,689.53 211.77,689.53Z" style="fill:rgb(168,168,168);fill-rule:nonzero;"/>
    </g>
    <g transform="matrix(1,0,0,1,-48.1,-96.1)">
        <path d="M244.83,701.81C233.55,701.9 218.62,700.06 215.61,698.22C213.32,696.83 212.41,691.83 212.1,689.52L211.77,689.52C211.77,689.52 212.4,697.58 215.41,699.41C218.42,701.24 233.35,703.09 244.63,703C247.89,703 249.01,701.81 248.95,700.1C248.5,701.15 247.26,701.79 244.83,701.81Z" style="fill-opacity:0.2;fill-rule:nonzero;"/>
    </g>
    <g opacity="0.1">
        <g transform="matrix(1,0,0,1,-48.1,-96.1)">
            <path d="M929.41,556.77C929.41,556.87 929.41,556.96 929.34,557.05C929.216,557.414 929.072,557.771 928.91,558.12C929.036,557.656 929.204,557.204 929.41,556.77Z" style="fill-rule:nonzero;"/>
        </g>
    </g>
</svg>
