<?xml version="1.0" encoding="iso-8859-1"?>
<!-- Generator: Adobe Illustrator 19.0.0, SVG Export Plug-In . SVG Version: 6.00 Build 0)  -->
<svg version="1.1" id="Capa_1" xmlns="http://www.w3.org/2000/svg" xmlns:xlink="http://www.w3.org/1999/xlink" x="0px" y="0px"
	 viewBox="0 0 352 352" style="enable-background:new 0 0 352 352;" xml:space="preserve">
<g>
	<g>
		<g>
			<path d="M332,16.4C321.6,6,307.6,0,292,0H60C44.4,0,30.4,6.4,20,16.4C9.6,26.8,3.6,40.8,3.6,56.4v184.4V258v37.2
				c0,15.6,6.4,29.6,16.4,40c10.4,10.4,24.4,16.4,40,16.4h232v0.4c15.6,0,29.6-6.4,40-16.4c10.4-10.4,16.4-24.4,16.4-40v-37.2v-51.2
				V56.4C348.4,40.8,342,26.8,332,16.4z M327.2,258.4v37.2c0,9.6-4,18.4-10.4,24.8c-6.4,6.4-15.2,10.4-24.8,10.4H60
				c-9.6,0-18.4-4-24.8-10.4c-6.4-6.8-10-15.2-10-24.8v-37.2v-12.8L96,174.4l60.4,60.4c4,4,10.8,4,15.2,0l89.2-89.6l66.4,66.4V258.4
				z M327.2,181.6l-58.8-59.2c-4-4-10.8-4.4-15.2,0L164,212l-60.4-60.4c-4-4-10.8-4.4-15.2,0l-63.2,63.6V56.4c0-9.6,3.6-18,10-24.4
				c6.4-6.4,15.2-10.4,24.8-10.4h232c9.6,0,18.4,4,24.8,10.4c6.4,6.4,10.4,15.2,10.4,24.8V181.6z"/>
			<circle cx="162" cy="120.4" r="28.8"/>
		</g>
	</g>
</g>
<g>
</g>
<g>
</g>
<g>
</g>
<g>
</g>
<g>
</g>
<g>
</g>
<g>
</g>
<g>
</g>
<g>
</g>
<g>
</g>
<g>
</g>
<g>
</g>
<g>
</g>
<g>
</g>
<g>
</g>
</svg>
