<?xml version="1.0" ?><svg enable-background="new 0 0 512 512" id="Layer_1" version="1.1" viewBox="0 0 512 512" xml:space="preserve" xmlns="http://www.w3.org/2000/svg" xmlns:xlink="http://www.w3.org/1999/xlink"><g><g><linearGradient gradientUnits="userSpaceOnUse" id="SVGID_1_" x1="-0.0000027" x2="512" y1="256" y2="256"><stop offset="0" style="stop-color:#00AEEE"/><stop offset="1" style="stop-color:#0095DA"/></linearGradient><circle cx="256" cy="256" fill="url(#SVGID_1_)" r="256"/><linearGradient gradientUnits="userSpaceOnUse" id="SVGID_2_" x1="42.6666641" x2="469.3333435" y1="256.0005188" y2="256.0005188"><stop offset="0" style="stop-color:#0095DA"/><stop offset="1" style="stop-color:#00AEEE"/></linearGradient><path d="M256,469.3338623c-117.6314697,0-213.3333435-95.7023926-213.3333435-213.3333435    c0-117.6314545,95.7018661-213.333313,213.3333435-213.333313c117.6357422,0,213.3333435,95.7018661,213.3333435,213.333313    C469.3333435,373.6314697,373.6357422,469.3338623,256,469.3338623z" fill="url(#SVGID_2_)"/></g><g><path d="M315.8906555,167.4933319h-28.3743896C287.5162659,154.4944,277.020813,144,264.0218811,144    c-13.0010834,0-23.4944153,10.4944-23.4944153,23.4933319h-28.3760071v40.6847992h103.7391968V167.4933319z" opacity="0.3"/><path d="M325.8906555,187.4895935v30.6885376H202.1504059v-30.6885376H164.354126V384h199.2911987V187.4895935    H325.8906555z M309.4405212,336.4693298l-7.0703735,7.0698853l-38.3712158-38.3712158l-38.3717346,38.3712158    l-7.0704041-7.0698853l38.3717346-38.3717346l-38.3717346-38.3717346l7.0704041-7.0698547l38.3717346,38.3711853    l38.3712158-38.3711853l7.0703735,7.0698547l-38.3717346,38.3717346L309.4405212,336.4693298z" opacity="0.3"/></g><g><path d="M307.8906555,159.4933319h-28.3743896C279.5162659,146.4944,269.020813,136,256.0218811,136    c-13.0010834,0-23.4944153,10.4944-23.4944153,23.4933319h-28.3760071v40.6847992h103.7391968V159.4933319z" fill="#FFFFFF"/><path d="M317.8906555,179.4895935v30.6885376H194.1504059v-30.6885376H156.354126V376h199.2911987V179.4895935    H317.8906555z M301.4405212,328.4693298l-7.0703735,7.0698853l-38.3712158-38.3712158l-38.3717346,38.3712158    l-7.0704041-7.0698853l38.3717346-38.3717346l-38.3717346-38.3717346l7.0704041-7.0698547l38.3717346,38.3711853    l38.3712158-38.3711853l7.0703735,7.0698547l-38.3717346,38.3717346L301.4405212,328.4693298z" fill="#FFFFFF"/></g></g></svg>