<?xml version="1.0" ?><svg enable-background="new 0 0 512 512" id="Layer_1" version="1.1" viewBox="0 0 512 512" xml:space="preserve" xmlns="http://www.w3.org/2000/svg" xmlns:xlink="http://www.w3.org/1999/xlink"><g><g><linearGradient gradientUnits="userSpaceOnUse" id="SVGID_1_" x1="-0.0000027" x2="512" y1="256" y2="256"><stop offset="0" style="stop-color:#33B49D"/><stop offset="1" style="stop-color:#00A185"/></linearGradient><circle cx="256" cy="256" fill="url(#SVGID_1_)" r="256"/><linearGradient gradientUnits="userSpaceOnUse" id="SVGID_2_" x1="42.6666641" x2="469.3333435" y1="256.0005188" y2="256.0005188"><stop offset="0" style="stop-color:#00A185"/><stop offset="1" style="stop-color:#33B49D"/></linearGradient><path d="M256,469.3338623c-117.6315308,0-213.3333435-95.7023926-213.3333435-213.3333435    c0-117.6314545,95.7018051-213.333313,213.3333435-213.333313c117.6362,0,213.3333435,95.7018661,213.3333435,213.333313    C469.3333435,373.6314697,373.6362,469.3338623,256,469.3338623z" fill="url(#SVGID_2_)"/></g><g><rect height="127.4010696" opacity="0.3" width="127.4021301" x="200.2975464" y="200.2986603"/><rect height="35.229332" opacity="0.3" width="10" x="302.7012634" y="144"/><rect height="35.229332" opacity="0.3" width="10" x="273.5652771" y="144"/><rect height="35.229332" opacity="0.3" width="10" x="244.4292755" y="144"/><rect height="35.229332" opacity="0.3" width="10" x="215.2985992" y="144"/><rect height="35.2341347" opacity="0.3" width="10" x="302.7012634" y="348.7658691"/><rect height="35.2341347" opacity="0.3" width="10" x="273.5652771" y="348.7658691"/><rect height="35.2341347" opacity="0.3" width="10" x="244.4292755" y="348.7658691"/><rect height="35.2341347" opacity="0.3" width="10" x="215.2985992" y="348.7658691"/><rect height="10" opacity="0.3" width="35.2292747" x="144" y="215.2986603"/><rect height="10" opacity="0.3" width="35.2292747" x="144" y="244.4341278"/><rect height="10" opacity="0.3" width="35.2292747" x="144" y="273.5653381"/><rect height="10" opacity="0.3" width="35.2292747" x="144" y="302.7013245"/><rect height="10" opacity="0.3" width="35.2347298" x="348.7652588" y="215.2986603"/><rect height="10" opacity="0.3" width="35.2347298" x="348.7652588" y="244.4341278"/><rect height="10" opacity="0.3" width="35.2347298" x="348.7652588" y="273.5653381"/><rect height="10" opacity="0.3" width="35.2347298" x="348.7652588" y="302.7013245"/></g><g><rect fill="#FFFFFF" height="127.4010696" width="127.4021301" x="192.2975464" y="192.2986603"/><rect fill="#FFFFFF" height="35.229332" width="10" x="294.7012634" y="136"/><rect fill="#FFFFFF" height="35.229332" width="10" x="265.5652771" y="136"/><rect fill="#FFFFFF" height="35.229332" width="10" x="236.4292755" y="136"/><rect fill="#FFFFFF" height="35.229332" width="10" x="207.2985992" y="136"/><rect fill="#FFFFFF" height="35.2341347" width="10" x="294.7012634" y="340.7658691"/><rect fill="#FFFFFF" height="35.2341347" width="10" x="265.5652771" y="340.7658691"/><rect fill="#FFFFFF" height="35.2341347" width="10" x="236.4292755" y="340.7658691"/><rect fill="#FFFFFF" height="35.2341347" width="10" x="207.2985992" y="340.7658691"/><rect fill="#FFFFFF" height="10" width="35.2292747" x="136" y="207.2986603"/><rect fill="#FFFFFF" height="10" width="35.2292747" x="136" y="236.4341278"/><rect fill="#FFFFFF" height="10" width="35.2292747" x="136" y="265.5653381"/><rect fill="#FFFFFF" height="10" width="35.2292747" x="136" y="294.7013245"/><rect fill="#FFFFFF" height="10" width="35.2347298" x="340.7652588" y="207.2986603"/><rect fill="#FFFFFF" height="10" width="35.2347298" x="340.7652588" y="236.4341278"/><rect fill="#FFFFFF" height="10" width="35.2347298" x="340.7652588" y="265.5653381"/><rect fill="#FFFFFF" height="10" width="35.2347298" x="340.7652588" y="294.7013245"/></g></g></svg>