<?xml version="1.0" ?><svg enable-background="new 0 0 512 512" id="Layer_1" version="1.1" viewBox="0 0 512 512" xml:space="preserve" xmlns="http://www.w3.org/2000/svg" xmlns:xlink="http://www.w3.org/1999/xlink"><g><g><linearGradient gradientUnits="userSpaceOnUse" id="SVGID_1_" x1="-0.0000027" x2="512" y1="256" y2="256"><stop offset="0" style="stop-color:#33B49D"/><stop offset="1" style="stop-color:#00A185"/></linearGradient><circle cx="256" cy="256" fill="url(#SVGID_1_)" r="256"/><linearGradient gradientUnits="userSpaceOnUse" id="SVGID_2_" x1="42.6666641" x2="469.3333435" y1="256.0005188" y2="256.0005188"><stop offset="0" style="stop-color:#00A185"/><stop offset="1" style="stop-color:#33B49D"/></linearGradient><path d="M256,469.3338623c-117.6315308,0-213.3333435-95.7023926-213.3333435-213.3333435    c0-117.6314545,95.7018051-213.333313,213.3333435-213.333313c117.6362,0,213.3333435,95.7018661,213.3333435,213.333313    C469.3333435,373.6314697,373.6362,469.3338623,256,469.3338623z" fill="url(#SVGID_2_)"/></g><g><circle cx="170.0324707" cy="174.964798" opacity="0.3" r="26.0319996"/><rect height="10" opacity="0.3" width="161.7552032" x="222.2442017" y="169.965332"/><circle cx="170.0324707" cy="264" opacity="0.3" r="26.0319996"/><rect height="10" opacity="0.3" width="161.7552032" x="222.2442017" y="259.0010681"/><circle cx="170.0324707" cy="353.034668" opacity="0.3" r="26.0319996"/><rect height="10" opacity="0.3" width="161.7552032" x="222.2442017" y="348.0341492"/></g><g><circle cx="162.0324707" cy="166.964798" fill="#FFFFFF" r="26.0319996"/><rect fill="#FFFFFF" height="10" width="161.7552032" x="214.2442017" y="161.965332"/><circle cx="162.0324707" cy="256" fill="#FFFFFF" r="26.0319996"/><rect fill="#FFFFFF" height="10" width="161.7552032" x="214.2442017" y="251.0010681"/><circle cx="162.0324707" cy="345.034668" fill="#FFFFFF" r="26.0319996"/><rect fill="#FFFFFF" height="10" width="161.7552032" x="214.2442017" y="340.0341492"/></g></g></svg>