<?xml version="1.0" ?>
<svg id="Layer_1" style="enable-background:new 0 0 512 512;" version="1.1" viewBox="0 0 512 512" xml:space="preserve" xmlns="http://www.w3.org/2000/svg" xmlns:xlink="http://www.w3.org/1999/xlink">
	<g>
		<g>
	        <linearGradient gradientUnits="userSpaceOnUse" id="SVGID_1_" x1="-0.0000027" x2="512" y1="256" y2="256">
				<stop offset="0" style="stop-color:#ffffff"/>
				<stop offset="1" style="stop-color:#aaaaaa"/>
	        </linearGradient><circle cx="256" cy="256" fill="url(#SVGID_1_)" r="256"/>
	        <linearGradient gradientUnits="userSpaceOnUse" id="SVGID_2_" x1="42.6666641" x2="469.3333435" y1="256.0005188" y2="256.0005188">
				<stop offset="0" style="stop-color:#aaaaaa"/>
				<stop offset="1" style="stop-color:#ffffff"/>
	        </linearGradient>
	        <path d="M256,469.3338623c-117.6314697,0-213.3333435-95.7023926-213.3333435-213.3333435    c0-117.6314545,95.7018661-213.333313,213.3333435-213.333313c117.6357422,0,213.3333435,95.7018661,213.3333435,213.333313    C469.3333435,373.6314697,373.6357422,469.3338623,256,469.3338623z" fill="url(#SVGID_2_)"/>
      	</g>
		<g>
			<path
				fill="#007dce"
				d="
				M386.6,277.5
				c-16.3-16.2-42.7-16.2-58.9,0
				c-2.3,2.3-4.2,4.8-5.9,7.4
				c0,0,0,0,0,0
				c-0.1,0.2-0.1,0.3-0.2,0.5

				c-21.4-2.3-53.7,4.9-74.4,44.4
				c-13.7,26-35.8,44.3-57.9,47.7
				c-9.4,1.4-22.9,0.7-34.4-10.7
				c-14.8-14.7-21.6-37.1-16.7-54.4

				c1.8-6.4,6.2-14.5,16.4-16.8
				c21.2-4.9,38.3-13,48.7-18.9
				c0.3,0.3,0.6,0.5,0.9,0.8
				c5.5,4,11.7,7.1,18.6,9.1

				c6.3,1.9,12.8,0.5,17.6-3.2
				c37.1,1.9,77.8-20.8,80.1-22.1
				c4.8-2.8,7-8.4,5.4-13.5
				c0,0,0,0,0,0
				l-3-4.2
				l3,4.2

				c26.4-21,29.7-41.6,29.2-51.8
				c0,0,0,0,0,0
				c2.7-1.9,4.2-5.2,3.5-8.5
				l-3.4-16.1
				c-0.9-4.2-4.9-6.6-9-5.2
				l-13.7,4.3

				c-4.1,1.3-5.8,5.4-3.7,9.2
				l7.8,14.2
				c2,3.6,6.7,5.6,10.7,4.8
				c0,0.1,0,0.1,0,0.2
				c-0.3,9-4.3,25.5-26,42.8
				c0,0,0,0-0.1,0

				c-3.6-2.4-8.3-2.8-12.4-0.5
				c-12.2,6.8-39.5,18.8-62.7,19.2
				c-2.2-5-6.4-9.1-12.1-10.8
				c-3.7-1.1-6.7-2.8-9.2-5.2
				l-0.5-0.5

				c-2.5-2.6-4.3-5.8-5.4-9.7
				c-1.6-5.6-5.5-9.9-10.4-12.2
				c0.7-22.9,12.5-49.5,19.3-61.4
				c2.2-3.9,1.9-8.5-0.4-12
				l-0.7-0.5
				l0.7,0.5
				c-0.1-0.1-0.1-0.2-0.2-0.3
				c17.5-21.8,34.1-25.7,43.2-26
				v0
				c0,0,0,0,0,0
				c-0.9,4,1.1,8.7,4.8,10.7
				l14.3,7.8
				c3.8,2,7.9,0.4,9.3-3.7

				l4.3-13.6
				c1.3-4.1-1-8.1-5.3-9
				l-16.1-3.4
				c-3.2-0.7-6.5,0.8-8.4,3.3
				c-0.1,0.1-0.1,0.1-0.2,0.2
				c-10.2-0.4-31,2.7-52.1,29.1
				l-0.1,0.1

				c-5.1-1.6-10.8,0.6-13.6,5.4
				c-1.3,2.3-23.3,41.5-22.2,77.9
				c-4,4.8-5.7,11.3-3.8,17.7
				c1.3,4.4,2.9,8.5,4.9,12.3

				c0.4,0.6,0.9,1.2,1.3,1.9
				c-9,4.6-22.6,10.4-38.4,14
				c-16.4,3.8-28.7,15.8-33.7,33.1
				c-7.3,25.5,1.8,56.6,22.6,77.3

				c14.3,14.3,33.7,20.4,54.5,17.2
				c29.7-4.6,57.8-27,75.1-59.9
				c15.2-29,36-32.9,48.2-32.2
				c0.4,9,3.4,18,9.4,25.4

				c0.7,0.8,1.4,1.6,2.2,2.4
				c16.3,16.2,42.7,16.2,58.9,0
				C402.9,319.9,402.9,293.7,386.6,277.5
				z

				M368.7,318.2
				c-6.4,6.3-16.7,6.3-23,0

				c-6.3-6.3-6.3-16.6,0-22.9
				c6.4-6.3,16.7-6.3,23,0
				C375,301.7,375,311.9,368.7,318.2
				z"
			/>
		</g>
    </g>
</svg>
