<?xml version="1.0" ?>
<svg enable-background="new 0 0 512 512" id="Layer_1" version="1.1" viewBox="0 0 512 512" xml:space="preserve" xmlns="http://www.w3.org/2000/svg" xmlns:xlink="http://www.w3.org/1999/xlink">
    <g transform="scale(1.5)">
        <g transform="translate(-78, -84)">
            <path d="M360.2250671,330.9226685v-37.9413452h-91.2255859v-46.6655884   c25.976532-2.5151978,46.2854309-24.3957367,46.2854309-51.0314636C315.2849121,166.9605255,292.3237305,144,264,144   s-51.2848053,22.9605255-51.2848053,51.2842712c0,26.6357269,20.3088074,48.5162659,46.2842865,51.0314636v46.6655884h-91.2256165   v37.9413452h-21.5375977V384h53.0762634v-53.0773315h-21.5386658v-27.9413452h81.2256165v27.9413452h-21.5376129V384h53.0763702   v-53.0773315h-21.5387573v-27.9413452h81.2255859v27.9413452H328.687561V384h53.0761719v-53.0773315H360.2250671z" opacity="0.3"/>
            <path d="M352.2250671,322.9226685v-37.9413452h-91.2255859v-46.6655884   c25.976532-2.5151978,46.2854309-24.3957367,46.2854309-51.0314636C307.2849121,158.9605255,284.3237305,136,256,136   s-51.2848053,22.9605255-51.2848053,51.2842712c0,26.6357269,20.3088074,48.5162659,46.2842712,51.0314636v46.6655884h-91.2256012   v37.9413452h-21.5375977V376h53.0762634v-53.0773315h-21.5386658v-27.9413452h81.2256012v27.9413452h-21.5375977V376h53.0763702   v-53.0773315h-21.5387573v-27.9413452h81.2255859v27.9413452H320.687561V376h53.0761719v-53.0773315H352.2250671z" fill="#FFFFFF"/>
        </g>
    </g>
</svg>
