<?xml version="1.0" ?><svg enable-background="new 0 0 512 512" id="Layer_1" version="1.1" viewBox="0 0 512 512" xml:space="preserve" xmlns="http://www.w3.org/2000/svg" xmlns:xlink="http://www.w3.org/1999/xlink"><g><g><linearGradient gradientUnits="userSpaceOnUse" id="SVGID_1_" x1="0.0000038" x2="512" y1="256" y2="256"><stop offset="0" style="stop-color:#F35CB5"/><stop offset="1" style="stop-color:#EC008C"/></linearGradient><circle cx="256" cy="256" fill="url(#SVGID_1_)" r="256"/><linearGradient gradientUnits="userSpaceOnUse" id="SVGID_2_" x1="42.6666679" x2="469.3333435" y1="256.0005188" y2="256.0005188"><stop offset="0" style="stop-color:#EC008C"/><stop offset="1" style="stop-color:#F35CB5"/></linearGradient><path d="M256,469.3338623c-117.6314697,0-213.3333282-95.7018738-213.3333282-213.3333435    c0-117.6309204,95.7018585-213.333313,213.3333282-213.333313c117.6357422,0,213.3333435,95.7024002,213.3333435,213.333313    C469.3333435,373.6319885,373.6357422,469.3338623,256,469.3338623z" fill="url(#SVGID_2_)"/></g><g><polygon opacity="0.3" points="341.5125427,245.7781372 334.3989258,238.6645355 269.0289001,304.0325317 269.0289001,148.352005     258.9679871,148.352005 258.9679871,304.0325317 193.6026611,238.6645355 186.4895935,245.7781372 263.9984131,323.2896118   "/><polygon opacity="0.3" points="337.4869385,265.3551941 264.3935852,339.2314758 190.517334,265.3551941 144,265.3551941     144,379.6485291 384,379.6485291 384,265.3551941   "/></g><g><polygon fill="#FFFFFF" points="333.5125427,237.7781372 326.3989258,230.6645355 261.0289001,296.0325317     261.0289001,140.352005 250.9680023,140.352005 250.9680023,296.0325317 185.6026611,230.6645355 178.4896088,237.7781372     255.9983978,315.2896118   "/><polygon fill="#FFFFFF" points="329.4869385,257.3551941 256.3935852,331.2314758 182.517334,257.3551941 136,257.3551941     136,371.6485291 376,371.6485291 376,257.3551941   "/></g></g></svg>