<?xml version="1.0" ?>
<svg enable-background="new 0 0 512 512" id="Layer_1" version="1.1" viewBox="0 0 512 512" xml:space="preserve" xmlns="http://www.w3.org/2000/svg" xmlns:xlink="http://www.w3.org/1999/xlink">
  <g>
    <g>
      <linearGradient gradientUnits="userSpaceOnUse" id="SVGID_1_" x1="-0.0000027" x2="512" y1="256" y2="256">
        <stop offset="0" style="stop-color:#00adee"/>
        <stop offset="1" style="stop-color:#007dce"/>
      </linearGradient>
      <circle cx="256" cy="256" fill="url(#SVGID_1_)" r="256"/>
      <linearGradient gradientUnits="userSpaceOnUse" id="SVGID_2_" x1="42.6666641" x2="469.3333435" y1="256.0005188" y2="256.0005188">
        <stop offset="0" style="stop-color:#007dce"/>
        <stop offset="1" style="stop-color:#00adee"/>
      </linearGradient>
      <path d="M256,469.3338623c-117.6314697,0-213.3333435-95.7023926-213.3333435-213.3333435    c0-117.6314545,95.7018661-213.333313,213.3333435-213.333313c117.636261,0,213.3333435,95.7018661,213.3333435,213.333313    C469.3333435,373.6314697,373.636261,469.3338623,256,469.3338623z" fill="url(#SVGID_2_)"/>
    </g>
    <g id="cover-shadow">
      <path id="Selection"
            fill="#ffffff"
            d="M 339.00,138.00
               C 339.00,138.00 335.00,143.00 335.00,143.00
                 335.00,143.00 322.00,131.01 322.00,131.01
                 320.46,129.58 318.26,127.20 316.00,127.20
                 312.63,127.20 302.72,138.22 300.01,141.00
                 300.01,141.00 266.00,177.00 266.00,177.00
                 263.38,179.65 253.04,189.18 252.34,192.00
                 251.30,196.15 261.08,203.94 263.96,206.72
                 265.38,208.08 268.92,211.37 265.71,213.09
                 261.80,215.19 257.02,206.34 253.00,205.34
                 249.05,204.35 241.71,213.29 239.00,216.00
                 239.00,216.00 273.00,250.00 273.00,250.00
                 275.96,247.88 284.80,240.69 284.80,237.00
                 284.80,233.70 279.17,229.69 277.29,227.00
                 276.38,225.71 275.01,223.07 277.29,222.20
                 279.32,221.42 281.67,223.82 283.00,225.04
                 285.81,227.61 293.21,235.91 297.00,235.82
                 300.28,235.74 306.52,228.49 308.72,226.00
                 317.72,215.79 329.64,205.99 337.00,195.00
                 373.45,234.79 367.62,297.20 322.00,327.64
                 320.34,328.75 317.46,330.75 315.42,330.71
                 313.10,330.66 306.92,325.71 299.00,325.21
                 280.63,324.05 269.03,340.20 269.00,357.00
                 269.00,357.00 269.00,374.00 269.00,374.00
                 269.00,376.19 269.21,379.84 267.98,381.69
                 266.25,384.27 262.73,383.98 260.00,384.00
                 260.00,384.00 231.00,384.00 231.00,384.00
                 231.00,384.00 231.00,318.00 231.00,318.00
                 231.00,318.00 295.00,318.00 295.00,318.00
                 295.00,318.00 295.00,308.00 295.00,308.00
                 295.00,308.00 289.00,308.00 289.00,308.00
                 289.00,308.00 289.00,304.00 289.00,304.00
                 289.00,304.00 150.00,304.00 150.00,304.00
                 150.00,304.00 150.00,308.00 150.00,308.00
                 150.00,308.00 144.00,308.00 144.00,308.00
                 144.00,308.00 144.00,318.00 144.00,318.00
                 144.00,318.00 209.00,318.00 209.00,318.00
                 209.00,318.00 209.00,374.00 209.00,374.00
                 209.00,376.19 209.21,379.84 207.98,381.69
                 205.63,385.20 193.17,384.00 189.00,384.00
                 189.00,384.00 132.00,384.00 132.00,384.00
                 132.00,384.00 132.00,401.00 132.00,401.00
                 132.00,401.00 338.00,401.00 338.00,401.00
                 338.00,401.00 338.00,384.00 338.00,384.00
                 335.14,384.00 329.71,384.51 327.60,382.40
                 325.96,380.77 326.04,378.14 326.00,376.00
                 326.00,376.00 326.00,357.00 326.00,357.00
                 326.02,344.73 329.78,347.05 341.00,337.72
                 349.58,330.58 355.38,324.24 361.66,315.00
                 382.58,284.20 386.06,243.79 370.29,210.00
                 365.81,200.38 359.23,188.79 351.00,182.00
                 351.00,182.00 362.00,170.00 362.00,170.00
                 362.00,170.00 352.00,159.42 352.00,159.42
                 352.00,159.42 345.58,152.00 345.58,152.00
                 345.58,152.00 347.00,147.00 347.00,147.00
                 347.00,147.00 366.00,165.00 366.00,165.00
                 370.92,160.83 373.00,156.24 374.33,150.00
                 378.04,132.64 367.39,115.84 350.00,112.02
                 342.77,110.43 335.73,111.12 329.00,114.33
                 326.77,115.39 323.01,117.49 322.34,120.04
                 321.70,122.45 323.60,124.37 325.06,126.00
                 329.12,130.53 333.96,134.62 339.00,138.00 Z"
        />
    </g>
  </g>
</svg>
