<?xml version="1.0" encoding="UTF-8" standalone="no"?>
<!DOCTYPE svg PUBLIC "-//W3C//DTD SVG 20010904//EN"
              "http://www.w3.org/TR/2001/REC-SVG-20010904/DTD/svg10.dtd">

<svg xmlns="http://www.w3.org/2000/svg"
     width="1.70667in" height="1.70667in"
     viewBox="0 0 512 512">
  <path id="Selection"
        fill="#cccccc"
        d="M 0.00,0.00
           C 0.00,0.00 0.00,97.00 0.00,97.00
             0.00,97.00 32.00,97.00 32.00,97.00
             32.00,97.00 32.00,32.00 32.00,32.00
             32.00,32.00 96.00,32.00 96.00,32.00
             96.00,32.00 96.00,0.00 96.00,0.00
             96.00,0.00 0.00,0.00 0.00,0.00 Z
           M 160.00,0.00
           C 160.00,0.00 160.00,32.00 160.00,32.00
             160.00,32.00 224.00,32.00 224.00,32.00
             224.00,32.00 224.00,0.00 224.00,0.00
             224.00,0.00 160.00,0.00 160.00,0.00 Z
           M 288.00,0.00
           C 288.00,0.00 288.00,32.00 288.00,32.00
             288.00,32.00 352.00,32.00 352.00,32.00
             352.00,32.00 352.00,0.00 352.00,0.00
             352.00,0.00 288.00,0.00 288.00,0.00 Z
           M 416.00,0.00
           C 416.00,0.00 416.00,32.00 416.00,32.00
             416.00,32.00 480.00,32.00 480.00,32.00
             480.00,32.00 480.00,96.00 480.00,96.00
             480.00,96.00 512.00,96.00 512.00,96.00
             512.00,96.00 512.00,0.00 512.00,0.00
             512.00,0.00 416.00,0.00 416.00,0.00 Z
           M 96.00,256.00
           C 96.00,256.00 192.00,256.00 192.00,256.00
             192.00,256.00 192.00,416.00 192.00,416.00
             192.00,416.00 320.00,416.00 320.00,416.00
             320.00,416.00 320.00,256.00 320.00,256.00
             320.00,256.00 416.00,256.00 416.00,256.00
             416.00,256.00 375.00,214.00 375.00,214.00
             375.00,214.00 296.00,135.00 296.00,135.00
             296.00,135.00 268.00,107.00 268.00,107.00
             265.67,104.67 259.16,97.20 256.00,97.20
             252.84,97.20 246.33,104.67 244.00,107.00
             244.00,107.00 216.00,135.00 216.00,135.00
             216.00,135.00 137.00,214.00 137.00,214.00
             137.00,214.00 96.00,256.00 96.00,256.00 Z
           M 0.00,160.00
           C 0.00,160.00 0.00,224.00 0.00,224.00
             0.00,224.00 32.00,224.00 32.00,224.00
             32.00,224.00 32.00,160.00 32.00,160.00
             32.00,160.00 0.00,160.00 0.00,160.00 Z
           M 480.00,160.00
           C 480.00,160.00 480.00,224.00 480.00,224.00
             480.00,224.00 512.00,224.00 512.00,224.00
             512.00,224.00 512.00,160.00 512.00,160.00
             512.00,160.00 480.00,160.00 480.00,160.00 Z
           M 0.00,288.00
           C 0.00,288.00 0.00,352.00 0.00,352.00
             0.00,352.00 32.00,352.00 32.00,352.00
             32.00,352.00 32.00,288.00 32.00,288.00
             32.00,288.00 0.00,288.00 0.00,288.00 Z
           M 480.00,288.00
           C 480.00,288.00 480.00,352.00 480.00,352.00
             480.00,352.00 512.00,352.00 512.00,352.00
             512.00,352.00 512.00,288.00 512.00,288.00
             512.00,288.00 480.00,288.00 480.00,288.00 Z
           M 0.00,416.00
           C 0.00,416.00 0.00,512.00 0.00,512.00
             0.00,512.00 64.00,512.00 64.00,512.00
             64.00,512.00 64.00,480.00 64.00,480.00
             64.00,480.00 32.00,480.00 32.00,480.00
             32.00,480.00 32.00,416.00 32.00,416.00
             32.00,416.00 0.00,416.00 0.00,416.00 Z
           M 480.00,416.00
           C 480.00,416.00 480.00,480.00 480.00,480.00
             480.00,480.00 450.00,480.00 450.00,480.00
             450.00,480.00 432.00,479.01 432.00,479.01
             432.00,479.01 416.00,479.01 416.00,479.01
             416.00,479.01 415.00,480.00 415.00,480.00
             415.00,480.00 416.00,512.00 416.00,512.00
             416.00,512.00 512.00,512.00 512.00,512.00
             512.00,512.00 512.00,416.00 512.00,416.00
             512.00,416.00 480.00,416.00 480.00,416.00 Z
           M 160.00,480.00
           C 160.00,480.00 160.00,512.00 160.00,512.00
             160.00,512.00 224.00,512.00 224.00,512.00
             224.00,512.00 224.00,480.00 224.00,480.00
             224.00,480.00 160.00,480.00 160.00,480.00 Z
           M 288.00,480.00
           C 288.00,480.00 288.00,512.00 288.00,512.00
             288.00,512.00 352.00,512.00 352.00,512.00
             352.00,512.00 352.00,480.00 352.00,480.00
             352.00,480.00 288.00,480.00 288.00,480.00 Z" />
</svg>
