<?xml version="1.0" ?>
<svg enable-background="new 0 0 512 512" id="Layer_1" version="1.1" viewBox="0 0 512 512" xml:space="preserve" xmlns="http://www.w3.org/2000/svg" xmlns:xlink="http://www.w3.org/1999/xlink">
    <g>
        <g>
          <linearGradient gradientUnits="userSpaceOnUse" id="SVGID_1_" x1="-0.0000027" x2="512" y1="256" y2="256">
            <stop offset="0" style="stop-color:#000"/>
            <stop offset="1" style="stop-color:#456"/>
          </linearGradient>
          <circle cx="256" cy="256" fill="url(#SVGID_1_)" r="256"/>
          <linearGradient gradientUnits="userSpaceOnUse" id="SVGID_2_" x1="42.6666641" x2="469.3333435" y1="256.0005188" y2="256.0005188">
            <stop offset="0" style="stop-color:#456"/>
            <stop offset="1" style="stop-color:#000"/>
          </linearGradient>
          <path d="M256,469.3338623c-117.6314697,0-213.3333435-95.7023926-213.3333435-213.3333435    c0-117.6314545,95.7018661-213.333313,213.3333435-213.333313c117.636261,0,213.3333435,95.7018661,213.3333435,213.333313    C469.3333435,373.6314697,373.636261,469.3338623,256,469.3338623z" fill="url(#SVGID_2_)"/>
        </g>
        <g id="cover-shadow"
            transform="translate(124.00 124.00) scale(2)">
            <g transform="translate(-8 -8) scale(1.15)">
                <path id="Selection"
                    fill="#fff"
                    d="
                    M   0.00,0.00
                    C   0.00,0.00 0.00,24.00 0.00,24.00
                        0.00,24.00 8.00,24.00 8.00,24.00
                        8.00,24.00 8.00,8.00 8.00,8.00
                        8.00,8.00 24.00,8.00 24.00,8.00
                        24.00,8.00 24.00,0.00 24.00,0.00
                        24.00,0.00 0.00,0.00 0.00,0.00
                    Z
                    M   40.00,0.00
                    C   40.00,0.00 40.00,8.00 40.00,8.00
                        40.00,8.00 56.00,8.00 56.00,8.00
                        56.00,8.00 56.00,0.00 56.00,0.00
                        56.00,0.00 40.00,0.00 40.00,0.00
                    Z
                    M   72.00,0.00
                    C   72.00,0.00 72.00,8.00 72.00,8.00
                        72.00,8.00 88.00,8.00 88.00,8.00
                        88.00,8.00 88.00,0.00 88.00,0.00
                        88.00,0.00 72.00,0.00 72.00,0.00
                    Z
                    M   104.00,0.00
                    C   104.00,0.00 104.00,8.00 104.00,8.00
                        104.00,8.00 120.00,8.00 120.00,8.00
                        120.00,8.00 120.00,24.00 120.00,24.00
                        120.00,24.00 128.00,24.00 128.00,24.00
                        128.00,24.00 128.00,0.00 128.00,0.00
                        128.00,0.00 104.00,0.00 104.00,0.00
                    Z
                    M    0.00,40.00
                    C   0.00,40.00 0.00,56.00 0.00,56.00
                        0.00,56.00 8.00,56.00 8.00,56.00
                        8.00,56.00 8.00,40.00 8.00,40.00
                        8.00,40.00 0.00,40.00 0.00,40.00
                    Z
                    M   120.00,40.00
                    C   120.00,40.00 120.00,56.00 120.00,56.00
                        120.00,56.00 128.00,56.00 128.00,56.00
                        128.00,56.00 128.00,40.00 128.00,40.00
                        128.00,40.00 120.00,40.00 120.00,40.00
                    Z
                    M   0.00,72.00
                    C   0.00,72.00 0.00,88.00 0.00,88.00
                        0.00,88.00 8.00,88.00 8.00,88.00
                        8.00,88.00 8.00,72.00 8.00,72.00
                        8.00,72.00 0.00,72.00 0.00,72.00
                    Z
                    M   120.00,72.00
                    C   120.00,72.00 120.00,88.00 120.00,88.00
                        120.00,88.00 128.00,88.00 128.00,88.00
                        128.00,88.00 128.00,72.00 128.00,72.00
                        128.00,72.00 120.00,72.00 120.00,72.00
                    Z
                    M   0.00,104.00
                    C   0.00,104.00 0.00,128.00 0.00,128.00
                        0.00,128.00 16.00,128.00 16.00,128.00
                        16.00,128.00 16.00,120.00 16.00,120.00
                        16.00,120.00 8.00,120.00 8.00,120.00
                        8.00,120.00 8.00,104.00 8.00,104.00
                        8.00,104.00 0.00,104.00 0.00,104.00
                    Z
                    M   120.00,104.00
                    C   120.00,104.00 120.00,120.00 120.00,120.00
                        120.00,120.00 104.00,120.00 104.00,120.00
                        104.00,120.00 104.00,128.00 104.00,128.00
                        104.00,128.00 128.00,128.00 128.00,128.00
                        128.00,128.00 128.00,104.00 128.00,104.00
                        128.00,104.00 120.00,104.00 120.00,104.00
                    Z
                    M   40.00,120.00
                    C   40.00,120.00 40.00,128.00 40.00,128.00
                        40.00,128.00 56.00,128.00 56.00,128.00
                        56.00,128.00 56.00,120.00 56.00,120.00
                        56.00,120.00 40.00,120.00 40.00,120.00
                    Z
                    M   72.00,120.00
                    C   72.00,120.00 72.00,128.00 72.00,128.00
                        72.00,128.00 88.00,128.00 88.00,128.00
                        88.00,128.00 88.00,120.00 88.00,120.00
                        88.00,120.00 72.00,120.00 72.00,120.00
                    Z"
                />
            </g>
            <g transform="translate(-21.00 24.00)">
                <path id="Selection"
                    fill="#fff"
                    d="
                    M   48.00,24.00
                    C   48.00,24.00 48.00,64.00 48.00,64.00
                        48.00,64.00 24.00,64.00 24.00,64.00
                        24.00,64.00 64.00,102.80 64.00,102.80
                        64.00,102.80 104.00,64.00 104.00,64.00
                        104.00,64.00 80.00,64.00 80.00,64.00
                        80.00,64.00 80.00,24.00 80.00,24.00
                        80.00,24.00 48.00,24.00 48.00,24.00
                    Z"
                />
            </g>
            <g transform="translate(24.00 -21.00) scale(0.25)">
                <path id="Selection"
                    fill="#fff"
                    d="
                    M   96.00,256.00
                    C   96.00,256.00 192.00,256.00 192.00,256.00
                        192.00,256.00 192.00,416.00 192.00,416.00
                        192.00,416.00 320.00,416.00 320.00,416.00
                        320.00,416.00 320.00,256.00 320.00,256.00
                        320.00,256.00 416.00,256.00 416.00,256.00
                        416.00,256.00 256.00,97.20 256.00,97.20
                        256.00,97.20 96.00,256.00 96.00,256.00
                    Z"
                />
            </g>
        </g>
    </g>
</svg>
