<?xml version="1.0" encoding="UTF-8" standalone="no"?>
<!DOCTYPE svg PUBLIC "-//W3C//DTD SVG 20010904//EN"
              "http://www.w3.org/TR/2001/REC-SVG-20010904/DTD/svg10.dtd">

<svg xmlns="http://www.w3.org/2000/svg"
     width="0.426667in" height="0.426667in"
     viewBox="0 0 128 128">
  <path id="Selection"
        fill="#cccccc"
        d="M 0.00,0.00
           C 0.00,0.00 0.00,24.00 0.00,24.00
             0.00,24.00 8.00,24.00 8.00,24.00
             8.00,24.00 8.00,8.00 8.00,8.00
             8.00,8.00 24.00,8.00 24.00,8.00
             24.00,8.00 24.00,0.00 24.00,0.00
             24.00,0.00 0.00,0.00 0.00,0.00 Z
           M 40.00,0.00
           C 40.00,0.00 40.00,8.00 40.00,8.00
             40.00,8.00 56.00,8.00 56.00,8.00
             56.00,8.00 56.00,0.00 56.00,0.00
             56.00,0.00 40.00,0.00 40.00,0.00 Z
           M 72.00,0.00
           C 72.00,0.00 72.00,8.00 72.00,8.00
             72.00,8.00 88.00,8.00 88.00,8.00
             88.00,8.00 88.00,0.00 88.00,0.00
             88.00,0.00 72.00,0.00 72.00,0.00 Z
           M 104.00,0.00
           C 104.00,0.00 104.00,8.00 104.00,8.00
             104.00,8.00 120.00,8.00 120.00,8.00
             120.00,8.00 120.00,24.00 120.00,24.00
             120.00,24.00 128.00,24.00 128.00,24.00
             128.00,24.00 128.00,0.00 128.00,0.00
             128.00,0.00 104.00,0.00 104.00,0.00 Z
           M 48.00,24.00
           C 48.00,24.00 48.00,64.00 48.00,64.00
             48.00,64.00 24.00,64.00 24.00,64.00
             28.68,70.53 46.26,87.26 53.00,94.00
             55.21,96.21 60.93,102.80 64.00,102.80
             67.07,102.80 72.79,96.21 75.00,94.00
             81.74,87.26 99.32,70.53 104.00,64.00
             104.00,64.00 80.00,64.00 80.00,64.00
             80.00,64.00 80.00,24.00 80.00,24.00
             80.00,24.00 48.00,24.00 48.00,24.00 Z
           M 0.00,40.00
           C 0.00,40.00 0.00,56.00 0.00,56.00
             0.00,56.00 8.00,56.00 8.00,56.00
             8.00,56.00 8.00,40.00 8.00,40.00
             8.00,40.00 0.00,40.00 0.00,40.00 Z
           M 120.00,40.00
           C 120.00,40.00 120.00,56.00 120.00,56.00
             120.00,56.00 128.00,56.00 128.00,56.00
             128.00,56.00 128.00,40.00 128.00,40.00
             128.00,40.00 120.00,40.00 120.00,40.00 Z
           M 0.00,72.00
           C 0.00,72.00 0.00,88.00 0.00,88.00
             0.00,88.00 8.00,88.00 8.00,88.00
             8.00,88.00 8.00,72.00 8.00,72.00
             8.00,72.00 0.00,72.00 0.00,72.00 Z
           M 120.00,72.00
           C 120.00,72.00 120.00,88.00 120.00,88.00
             120.00,88.00 128.00,88.00 128.00,88.00
             128.00,88.00 128.00,72.00 128.00,72.00
             128.00,72.00 120.00,72.00 120.00,72.00 Z
           M 0.00,104.00
           C 0.00,104.00 0.00,128.00 0.00,128.00
             0.00,128.00 16.00,128.00 16.00,128.00
             16.00,128.00 16.00,120.00 16.00,120.00
             16.00,120.00 8.00,120.00 8.00,120.00
             8.00,120.00 8.00,104.00 8.00,104.00
             8.00,104.00 0.00,104.00 0.00,104.00 Z
           M 120.00,104.00
           C 120.00,104.00 120.00,120.00 120.00,120.00
             120.00,120.00 104.00,120.00 104.00,120.00
             104.00,120.00 104.00,128.00 104.00,128.00
             104.00,128.00 128.00,128.00 128.00,128.00
             128.00,128.00 128.00,104.00 128.00,104.00
             128.00,104.00 120.00,104.00 120.00,104.00 Z
           M 40.00,120.00
           C 40.00,120.00 40.00,128.00 40.00,128.00
             40.00,128.00 56.00,128.00 56.00,128.00
             56.00,128.00 56.00,120.00 56.00,120.00
             56.00,120.00 40.00,120.00 40.00,120.00 Z
           M 72.00,120.00
           C 72.00,120.00 72.00,128.00 72.00,128.00
             72.00,128.00 88.00,128.00 88.00,128.00
             88.00,128.00 88.00,120.00 88.00,120.00
             88.00,120.00 72.00,120.00 72.00,120.00 Z" />
</svg>
