<?xml version="1.0" encoding="UTF-8" standalone="no"?>
<!DOCTYPE svg PUBLIC "-//W3C//DTD SVG 20010904//EN"
              "http://www.w3.org/TR/2001/REC-SVG-20010904/DTD/svg10.dtd">

<svg xmlns="http://www.w3.org/2000/svg"
     width="1.70667in" height="1.70667in"
     viewBox="0 0 512 512">
    <g>
        <g>
            <linearGradient gradientUnits="userSpaceOnUse" id="SVGID_1_" x1="-0.0000027" x2="512" y1="256" y2="256">
                <stop offset="0" style="stop-color:#456"/>
                <stop offset="1" style="stop-color:#000"/>
            </linearGradient>
            <circle cx="256" cy="256" fill="url(#SVGID_1_)" r="256"/>
            <linearGradient gradientUnits="userSpaceOnUse" id="SVGID_2_" x1="42.6666641" x2="469.3333435" y1="256.0005188" y2="256.0005188">
                <stop offset="0" style="stop-color:#000"/>
                <stop offset="1" style="stop-color:#456"/>
            </linearGradient>
            <path
                d="
                M   256,469.3338623
                c   -117.6314697,0-213.3333435-95.7023926-213.3333435-213.3333435
                c   0-117.6314545,95.7018661-213.333313,213.3333435-213.333313
                c   117.636261,0,213.3333435,95.7018661,213.3333435,213.333313
                C   469.3333435,373.6314697,373.636261,469.3338623,256,469.3338623
                z"
                fill="url(#SVGID_2_)"/>
        </g>
        <g id="cover-shadow"
            transform="translate(124.00 124.00) scale(0.5)">
            <path
                id="Selection"
                fill="#fff"
                d="
                M   0.00,0.00
                C   0.00,0.00 0.00,97.00 0.00,97.00
                    0.00,97.00 32.00,97.00 32.00,97.00
                    32.00,97.00 32.00,32.00 32.00,32.00
                    32.00,32.00 96.00,32.00 96.00,32.00
                    96.00,32.00 96.00,0.00 96.00,0.00
                    96.00,0.00 0.00,0.00 0.00,0.00
                Z
                M    160.00,0.00
                C   160.00,0.00 160.00,32.00 160.00,32.00
                    160.00,32.00 224.00,32.00 224.00,32.00
                    224.00,32.00 224.00,0.00 224.00,0.00
                    224.00,0.00 160.00,0.00 160.00,0.00
                Z
                M   288.00,0.00
                C   288.00,0.00 288.00,32.00 288.00,32.00
                    288.00,32.00 352.00,32.00 352.00,32.00
                    352.00,32.00 352.00,0.00 352.00,0.00
                    352.00,0.00 288.00,0.00 288.00,0.00
                Z
                M   416.00,0.00
                C   416.00,0.00 416.00,32.00 416.00,32.00
                    416.00,32.00 480.00,32.00 480.00,32.00
                    480.00,32.00 480.00,96.00 480.00,96.00
                    480.00,96.00 512.00,96.00 512.00,96.00
                    512.00,96.00 512.00,0.00 512.00,0.00
                    512.00,0.00 416.00,0.00 416.00,0.00
                Z
                M   96.00,256.00
                C   96.00,256.00 192.00,256.00 192.00,256.00
                    192.00,256.00 192.00,416.00 192.00,416.00
                    192.00,416.00 320.00,416.00 320.00,416.00
                    320.00,416.00 320.00,256.00 320.00,256.00
                    320.00,256.00 416.00,256.00 416.00,256.00
                    416.00,256.00 256.00,97.20 256.00,97.20
                    256.00,97.20 96.00,256.00 96.00,256.00
                Z
                M   0.00,160.00
                C   0.00,160.00 0.00,224.00 0.00,224.00
                    0.00,224.00 32.00,224.00 32.00,224.00
                    32.00,224.00 32.00,160.00 32.00,160.00
                    32.00,160.00 0.00,160.00 0.00,160.00
                Z
                M   480.00,160.00
                C   480.00,160.00 480.00,224.00 480.00,224.00
                    480.00,224.00 512.00,224.00 512.00,224.00
                    512.00,224.00 512.00,160.00 512.00,160.00
                    512.00,160.00 480.00,160.00 480.00,160.00
                Z
                M   0.00,288.00
                C   0.00,288.00 0.00,352.00 0.00,352.00
                    0.00,352.00 32.00,352.00 32.00,352.00
                    32.00,352.00 32.00,288.00 32.00,288.00
                    32.00,288.00 0.00,288.00 0.00,288.00
                Z
                M   480.00,288.00
                C   480.00,288.00 480.00,352.00 480.00,352.00
                    480.00,352.00 512.00,352.00 512.00,352.00
                    512.00,352.00 512.00,288.00 512.00,288.00
                    512.00,288.00 480.00,288.00 480.00,288.00
                Z
                M   0.00,416.00
                C   0.00,416.00 0.00,512.00 0.00,512.00
                    0.00,512.00 64.00,512.00 64.00,512.00
                    64.00,512.00 64.00,480.00 64.00,480.00
                    64.00,480.00 32.00,480.00 32.00,480.00
                    32.00,480.00 32.00,416.00 32.00,416.00
                    32.00,416.00 0.00,416.00 0.00,416.00
                Z
                M   480.00,416.00
                C   480.00,416.00 480.00,480.00 480.00,480.00
                    480.00,480.00 450.00,480.00 450.00,480.00
                    450.00,480.00 432.00,479.01 432.00,479.01
                    432.00,479.01 416.00,479.01 416.00,479.01
                    416.00,479.01 415.00,480.00 415.00,480.00
                    415.00,480.00 416.00,512.00 416.00,512.00
                    416.00,512.00 512.00,512.00 512.00,512.00
                    512.00,512.00 512.00,416.00 512.00,416.00
                    512.00,416.00 480.00,416.00 480.00,416.00
                Z
                M   160.00,480.00
                C   160.00,480.00 160.00,512.00 160.00,512.00
                    160.00,512.00 224.00,512.00 224.00,512.00
                    224.00,512.00 224.00,480.00 224.00,480.00
                    224.00,480.00 160.00,480.00 160.00,480.00
                Z
                M   288.00,480.00
                C   288.00,480.00 288.00,512.00 288.00,512.00
                    288.00,512.00 352.00,512.00 352.00,512.00
                    352.00,512.00 352.00,480.00 352.00,480.00
                    352.00,480.00 288.00,480.00 288.00,480.00
                Z"
            />
        </g>
    </g>
</svg>
