<?xml version="1.0" encoding="UTF-8" standalone="no"?>
<!DOCTYPE svg PUBLIC "-//W3C//DTD SVG 1.1//EN" "http://www.w3.org/Graphics/SVG/1.1/DTD/svg11.dtd">
<svg width="100%" height="100%" viewBox="0 0 512 512" version="1.1" xmlns="http://www.w3.org/2000/svg" xmlns:xlink="http://www.w3.org/1999/xlink" xml:space="preserve" xmlns:serif="http://www.serif.com/" style="fill-rule:evenodd;clip-rule:evenodd;stroke-linejoin:round;stroke-miterlimit:2;">
    <g id="Layer2">
        <path d="M44,14C27.443,14 14,27.443 14,44L14,468C14,476.265 17.35,483.755 22.765,489.183L22.791,489.209C22.791,489.209 22.817,489.235 22.817,489.235C28.245,494.65 35.735,498 44,498L468,498C484.557,498 498,484.557 498,468L498,330C498,313.443 484.557,300 468,300C451.443,300 438,313.443 438,330L438,438L74,438L74,74L182,74C198.557,74 212,60.557 212,44C212,27.443 198.557,14 182,14L44,14ZM394.634,74L262.144,206.49C250.436,218.198 250.436,237.209 262.144,248.917C273.852,260.625 292.863,260.625 304.57,248.917L438,115.487L438,210C438,226.557 451.443,240 468,240C484.557,240 498,226.557 498,210L498,44C498,35.735 494.65,28.245 489.235,22.817L489.209,22.791C489.209,22.791 489.183,22.765 489.183,22.765C483.755,17.35 476.265,14 468,14L302,14C285.443,14 272,27.443 272,44C272,60.557 285.443,74 302,74L394.634,74Z"/>
    </g>
</svg>
