<?xml version="1.0" encoding="UTF-8" standalone="no"?>
<!DOCTYPE svg PUBLIC "-//W3C//DTD SVG 20010904//EN"
              "http://www.w3.org/TR/2001/REC-SVG-20010904/DTD/svg10.dtd">

<svg xmlns="http://www.w3.org/2000/svg"
     width="2.93333in" height="3.06667in"
     viewBox="0 0 512 512"
>
  <g>
    <linearGradient gradientUnits="userSpaceOnUse" id="SVGID_1_" x1="-0.0000027" x2="512" y1="256" y2="256">
      <stop offset="0" style="stop-color:#541f1b"/>
      <stop offset="1" style="stop-color:#a91b0d"/>
    </linearGradient>
    <circle cx="256" cy="256" fill="url(#SVGID_1_)" r="256"/>
    <linearGradient gradientUnits="userSpaceOnUse" id="SVGID_2_" x1="42.6666641" x2="469.3333435" y1="256.0005188" y2="256.0005188">
      <stop offset="0" style="stop-color:#a91b0d"/>
      <stop offset="1" style="stop-color:#541f1b"/>
    </linearGradient>
    <path d="M256,469.3338623c-117.6314697,0-213.3333435-95.7023926-213.3333435-213.3333435    c0-117.6314545,95.7018661-213.333313,213.3333435-213.333313c117.6357422,0,213.3333435,95.7018661,213.3333435,213.333313    C469.3333435,373.6314697,373.6357422,469.3338623,256,469.3338623z" fill="url(#SVGID_2_)"/>
  </g>
  <g transform="
      translate(80, 80)
      scale(0.4)
  ">
    <path id="glasses"
           fill="#000"
           d="M 314.00,503.21
              C 307.04,504.43 299.79,504.67 294.04,509.39
                281.95,519.33 287.74,545.64 293.31,558.00
                305.34,584.70 329.18,602.65 359.00,603.00
                359.00,603.00 367.00,603.00 367.00,603.00
                390.85,602.89 413.70,588.04 421.25,565.00
                424.01,556.59 424.10,550.65 424.00,542.00
                423.57,505.69 375.59,507.27 350.00,504.83
                350.00,504.83 335.00,503.91 335.00,503.91
                335.00,503.91 325.00,503.21 325.00,503.21
                325.00,503.21 314.00,503.21 314.00,503.21 Z
              M 549.00,503.42
              C 549.00,503.42 536.00,504.09 536.00,504.09
                536.00,504.09 492.00,508.80 492.00,508.80
                482.54,510.63 471.18,514.25 464.32,521.30
                457.58,528.23 455.90,537.72 456.00,547.00
                456.35,577.84 481.12,602.64 512.00,603.00
                540.73,603.33 565.64,594.85 581.39,569.00
                587.72,558.59 592.85,544.28 593.00,532.00
                593.07,525.52 593.79,518.45 589.58,513.02
                581.71,502.84 560.89,501.98 549.00,503.42 Z" />
    <path id="head"
          fill="#000"
          d="M 196.00,310.00
             C 157.00,317.34 100.69,333.54 68.00,355.67
               49.93,367.90 32.97,386.48 45.31,409.00
               56.44,429.32 84.25,442.43 105.00,450.99
               105.00,450.99 124.00,458.31 124.00,458.31
               126.46,459.18 131.76,460.54 133.18,462.51
               135.43,465.18 132.87,477.62 133.18,482.00
               133.72,499.63 138.37,519.19 146.27,535.00
               146.27,535.00 160.00,558.00 160.00,558.00
               151.04,562.00 138.14,570.76 130.00,576.58
               106.10,593.66 85.83,612.72 66.73,635.00
               66.73,635.00 50.58,655.00 50.58,655.00
               46.85,659.79 43.49,662.96 42.00,669.00
               42.00,669.00 80.00,697.58 80.00,697.58
               80.00,697.58 134.00,738.63 134.00,738.63
               134.00,738.63 159.00,757.63 159.00,757.63
               159.00,757.63 168.69,766.17 168.69,766.17
               168.69,766.17 166.41,788.00 166.41,788.00
               166.41,788.00 159.00,839.00 159.00,839.00
               159.00,839.00 725.00,839.00 725.00,839.00
               725.00,839.00 715.00,787.00 715.00,787.00
               714.23,783.16 710.80,769.90 711.69,767.01
               712.77,763.46 718.06,760.08 721.00,757.87
               721.00,757.87 746.00,738.87 746.00,738.87
               746.00,738.87 805.00,693.88 805.00,693.88
               805.00,693.88 839.00,668.00 839.00,668.00
               830.81,653.76 810.68,631.16 799.04,619.00
               779.93,599.05 746.32,568.97 721.00,558.00
               736.80,531.67 747.05,511.60 746.88,480.00
               746.99,476.23 745.11,464.71 746.88,462.51
               748.19,460.62 752.74,459.42 755.00,458.67
               755.00,458.67 773.00,451.99 773.00,451.99
               789.48,445.21 809.73,435.70 823.00,423.83
               833.14,414.76 839.34,405.89 838.99,392.00
               838.62,377.75 825.69,365.33 815.00,357.38
               791.37,339.79 750.60,326.38 722.00,318.42
               722.00,318.42 698.00,312.65 698.00,312.65
               694.98,311.97 689.62,311.22 687.31,309.28
               684.49,306.90 682.00,295.04 680.86,291.00
               680.86,291.00 667.37,242.00 667.37,242.00
               655.66,196.99 634.72,129.32 611.40,90.00
               599.32,69.64 582.92,49.09 559.00,42.75
               551.96,40.89 546.17,40.92 539.00,41.00
               521.02,41.21 499.67,47.67 482.00,51.58
               468.77,54.50 455.47,55.86 442.00,56.82
               442.00,56.82 432.00,56.04 432.00,56.04
               400.44,54.66 371.26,41.33 343.00,41.00
               335.69,40.92 330.19,40.64 323.00,42.48
               298.44,48.76 281.88,68.37 268.95,89.00
               244.31,128.34 223.03,195.41 211.63,241.00
               211.63,241.00 199.63,288.00 199.63,288.00
               198.01,294.48 194.47,303.56 196.00,310.00 Z
             M 687.00,478.00
             C 686.85,494.73 678.57,518.97 665.00,529.32
               658.84,534.01 657.01,532.67 651.00,535.35
               644.22,538.36 638.88,543.45 635.40,550.00
               635.40,550.00 622.40,582.00 622.40,582.00
               622.40,582.00 611.14,608.00 611.14,608.00
               592.73,649.33 562.84,703.15 531.00,735.00
               531.00,735.00 518.00,747.71 518.00,747.71
               499.32,763.96 471.29,778.70 446.00,779.00
               399.64,779.54 368.31,757.20 338.87,723.00
               298.68,676.31 271.17,614.00 248.94,557.00
               245.41,547.94 240.81,540.99 232.00,536.33
               224.56,532.38 222.45,534.62 215.00,528.53
               201.42,517.45 194.00,495.06 194.00,478.00
               194.00,478.00 226.00,483.92 226.00,483.92
               226.00,483.92 305.00,494.83 305.00,494.83
               305.00,494.83 350.00,498.09 350.00,498.09
               350.00,498.09 391.00,500.00 391.00,500.00
               391.00,500.00 408.00,501.00 408.00,501.00
               408.00,501.00 473.00,501.00 473.00,501.00
               473.00,501.00 485.00,500.04 485.00,500.04
               485.00,500.04 501.00,500.04 501.00,500.04
               501.00,500.04 520.00,499.00 520.00,499.00
               520.00,499.00 531.00,498.04 531.00,498.04
               559.97,496.78 589.26,493.87 618.00,489.73
               618.00,489.73 662.00,482.58 662.00,482.58
               662.00,482.58 687.00,478.00 687.00,478.00 Z"
    />
  </g>
</svg>
