<?xml version="1.0" ?><svg enable-background="new 0 0 512 512" id="Layer_1" version="1.1" viewBox="0 0 512 512" xml:space="preserve" xmlns="http://www.w3.org/2000/svg" xmlns:xlink="http://www.w3.org/1999/xlink"><g><g><linearGradient gradientUnits="userSpaceOnUse" id="SVGID_1_" x1="0.0000038" x2="512" y1="256" y2="256"><stop offset="0" style="stop-color:#95A5A6"/><stop offset="1" style="stop-color:#7F8C8D"/></linearGradient><circle cx="256" cy="256" fill="url(#SVGID_1_)" r="256"/><linearGradient gradientUnits="userSpaceOnUse" id="SVGID_2_" x1="42.6666679" x2="469.3333435" y1="256.0005188" y2="256.0005188"><stop offset="0" style="stop-color:#7F8C8D"/><stop offset="1" style="stop-color:#95A5A6"/></linearGradient><path d="M256,469.3338623c-117.6314697,0-213.3333282-95.7023926-213.3333282-213.3333435    c0-117.6314545,95.7018585-213.333313,213.3333282-213.333313c117.6357422,0,213.3333435,95.7018661,213.3333435,213.333313    C469.3333435,373.6314697,373.6357422,469.3338623,256,469.3338623z" fill="url(#SVGID_2_)"/></g><g><path d="M172.7434692,226.2037354l-28.622406,139.9381409    c-0.0623932,0.275177,0.1472015,0.5370483,0.4293365,0.5370483h210.706131L384,226.2037354H172.7434692z" opacity="0.3"/><polygon opacity="0.3" points="355.2565308,216.2026672 355.2565308,187.7279968 245.9622192,187.7279968     218.8202667,161.3205261 144,161.3205261 144,316.8346558 164.5797272,216.2026672   "/></g><g><path d="M164.7434692,218.2037354l-28.622406,139.9381409    c-0.0623932,0.275177,0.1472015,0.5370483,0.4293365,0.5370483h210.706131L376,218.2037354H164.7434692z" fill="#FFFFFF"/><polygon fill="#FFFFFF" points="347.2565308,208.2026672 347.2565308,179.7279968 237.9622192,179.7279968     210.8202667,153.3205261 136,153.3205261 136,308.8346558 156.5797424,208.2026672   "/></g></g></svg>