<?xml version="1.0" encoding="UTF-8" standalone="no"?>
<!DOCTYPE svg PUBLIC "-//W3C//DTD SVG 20010904//EN"
              "http://www.w3.org/TR/2001/REC-SVG-20010904/DTD/svg10.dtd">

<svg xmlns="http://www.w3.org/2000/svg" width="512" height="512" viewBox="0 0 512 512">
    <g>
        <g>
          <linearGradient gradientUnits="userSpaceOnUse" id="SVGID_1_" x1="-0.0000027" x2="512" y1="256" y2="256">
            <stop offset="0" style="stop-color:#85bf35"/>
            <stop offset="1" style="stop-color:#237a35"/>
          </linearGradient>
          <circle cx="256" cy="256" fill="url(#SVGID_1_)" r="256"/>
          <linearGradient gradientUnits="userSpaceOnUse" id="SVGID_2_" x1="42.6666641" x2="469.3333435" y1="256.0005188" y2="256.0005188">
            <stop offset="0" style="stop-color:#237a35"/>
            <stop offset="1" style="stop-color:#85bf35"/>
          </linearGradient>
          <path d="M256,469.3338623c-117.6314697,0-213.3333435-95.7023926-213.3333435-213.3333435    c0-117.6314545,95.7018661-213.333313,213.3333435-213.333313c117.6357422,0,213.3333435,95.7018661,213.3333435,213.333313    C469.3333435,373.6314697,373.6357422,469.3338623,256,469.3338623z" fill="url(#SVGID_2_)"/>
        </g>
        <g transform="translate(90 100) scale(1.6)">
            <path id="Selection"
                fill="#ffffff"
                d="M 79.00,50.00
                   C 77.76,47.29 76.99,45.47 74.79,43.33
                     66.81,35.57 52.60,37.35 43.00,40.69
                     37.32,42.68 32.22,45.49 26.00,44.81
                     20.95,44.26 15.90,41.85 12.00,38.67
                     9.90,36.96 6.61,33.34 4.06,32.74
                     -0.28,31.73 -0.07,37.28 0.04,40.00
                     0.22,44.64 1.91,50.68 3.62,55.00
                     10.75,73.08 24.47,80.94 43.00,83.15
                     49.54,83.94 54.56,83.88 61.00,81.96
                     66.94,80.18 71.59,77.09 75.20,72.00
                     76.90,69.60 78.35,65.48 80.41,63.98
                     81.78,63.00 86.94,61.72 89.00,60.94
                     94.17,58.97 97.92,56.65 102.00,52.91
                     110.15,45.43 115.89,35.16 128.00,36.09
                     131.34,36.35 135.18,37.38 137.26,40.22
                     139.47,43.25 138.73,48.77 136.28,51.49
                     134.61,53.34 130.40,54.61 128.00,55.81
                     123.25,58.19 118.99,61.28 115.09,64.87
                     95.21,83.14 91.38,102.52 88.83,128.00
                     88.83,128.00 87.01,144.00 87.01,144.00
                     86.91,148.80 87.45,153.30 88.45,158.00
                     89.14,161.21 90.18,164.22 91.97,167.00
                     104.26,186.09 128.22,173.94 144.00,167.55
                     172.38,156.05 199.62,129.40 200.00,97.00
                     200.17,81.95 201.00,63.14 186.00,54.22
                     179.10,50.12 172.58,50.98 165.00,51.13
                     165.00,51.13 151.00,51.13 151.00,51.13
                     155.73,34.35 145.69,23.20 129.00,23.00
                     123.90,22.94 118.84,22.61 114.00,24.47
                     104.95,27.95 99.13,36.58 92.00,42.82
                     87.09,47.11 84.63,47.51 79.00,50.00 Z
                   M 72.00,53.00
                   C 66.11,51.95 63.71,51.62 58.00,54.18
                     54.47,55.76 50.77,58.80 47.00,59.38
                     41.63,60.20 38.38,55.72 35.37,57.82
                     32.13,60.07 35.93,63.41 38.02,64.56
                     52.89,72.76 56.83,54.74 72.00,61.00
                     69.00,71.18 61.26,75.87 51.00,76.00
                     31.76,76.23 12.34,68.31 9.00,47.00
                     14.94,48.68 19.62,51.68 26.00,51.96
                     41.56,52.64 63.36,34.95 72.00,53.00 Z
                   M 9.00,46.00
                   C 9.00,46.00 9.00,47.00 9.00,47.00
                     9.00,47.00 8.00,46.00 8.00,46.00
                     8.00,46.00 9.00,46.00 9.00,46.00 Z
                   M 101.00,147.00
                   C 99.73,142.53 101.89,130.73 103.15,126.00
                     109.20,103.33 125.28,86.52 145.00,74.60
                     154.93,68.60 175.37,56.39 183.59,71.02
                     184.80,73.18 185.81,76.56 186.33,79.00
                     187.24,83.26 187.01,87.67 187.00,92.00
                     186.95,125.18 162.01,146.49 133.00,157.32
                     126.64,159.69 119.83,163.83 113.00,163.76
                     111.78,163.97 110.18,163.89 108.98,163.76
                     96.75,160.18 108.57,149.47 108.98,146.02
                     109.07,145.10 108.92,144.18 108.30,143.46
                     105.74,140.52 102.38,145.26 101.00,147.00 Z
                   M 175.74,73.01
                   C 173.34,76.50 174.95,80.87 175.00,85.00
                     175.10,93.89 175.38,101.54 171.91,110.00
                     169.56,115.71 165.08,119.46 165.96,122.70
                     166.68,125.33 170.45,125.48 173.32,122.70
                     182.78,113.48 182.14,94.19 182.00,82.00
                     181.95,77.78 181.84,70.88 175.74,73.01 Z" />
        </g>
    </g>
</svg>
