<?xml version="1.0" encoding="UTF-8" standalone="no"?>
<!DOCTYPE svg PUBLIC "-//W3C//DTD SVG 20010904//EN"
              "http://www.w3.org/TR/2001/REC-SVG-20010904/DTD/svg10.dtd">

<svg xmlns="http://www.w3.org/2000/svg"
     width="180.6mm" height="180.6mm"
     viewBox="0 0 512 512">
  <path id="Selection"
        fill="#929292"
        d="M 256.00,80.00
           C 256.00,80.00 256.00,255.00 256.00,255.00
             256.00,255.00 233.00,232.00 233.00,232.00
             233.00,232.00 220.00,219.00 220.00,219.00
             217.40,216.40 207.79,206.03 205.00,205.34
             201.21,204.39 192.39,213.21 193.34,217.00
             194.04,219.82 205.30,230.30 208.00,233.00
             208.00,233.00 247.00,272.00 247.00,272.00
             247.00,272.00 258.00,282.98 258.00,282.98
             259.51,284.42 261.76,286.80 264.00,286.80
             266.24,286.80 268.49,284.42 270.00,282.98
             270.00,282.98 281.00,272.00 281.00,272.00
             281.00,272.00 320.00,233.00 320.00,233.00
             322.70,230.30 333.96,219.82 334.66,217.00
             335.61,213.21 326.79,204.39 323.00,205.34
             320.21,206.03 310.60,216.40 308.00,219.00
             308.00,219.00 295.00,232.00 295.00,232.00
             295.00,232.00 272.00,255.00 272.00,255.00
             272.00,255.00 272.00,80.00 272.00,80.00
             272.00,80.00 256.00,80.00 256.00,80.00 Z
           M 64.17,432.00
           C 64.17,432.00 463.83,432.00 463.83,432.00
             463.83,432.00 463.83,294.00 463.83,294.00
             464.00,291.78 464.09,289.14 463.83,287.00
             462.48,283.27 454.35,271.10 451.81,267.00
             451.81,267.00 420.58,217.00 420.58,217.00
             420.58,217.00 394.32,175.00 394.32,175.00
             385.11,160.39 386.65,160.02 377.00,160.00
             377.00,160.00 288.00,160.00 288.00,160.00
             288.00,160.00 288.00,176.00 288.00,176.00
             288.00,176.00 365.00,176.00 365.00,176.00
             365.00,176.00 372.82,177.02 372.82,177.02
             372.82,177.02 379.05,185.00 379.05,185.00
             379.05,185.00 389.68,202.00 389.68,202.00
             389.68,202.00 423.42,256.00 423.42,256.00
             423.42,256.00 443.00,288.00 443.00,288.00
             443.00,288.00 336.00,288.00 336.00,288.00
             336.00,304.92 339.04,327.68 326.82,340.96
             318.41,350.09 307.82,351.98 296.00,352.00
             296.00,352.00 230.00,352.00 230.00,352.00
             219.04,351.87 208.87,349.31 201.18,340.96
             188.96,327.68 192.00,304.92 192.00,288.00
             192.00,288.00 85.00,288.00 85.00,288.00
             85.00,288.00 104.58,256.00 104.58,256.00
             104.58,256.00 138.32,202.00 138.32,202.00
             138.32,202.00 148.95,185.00 148.95,185.00
             148.95,185.00 155.18,177.02 155.18,177.02
             155.18,177.02 163.00,176.00 163.00,176.00
             163.00,176.00 240.00,176.00 240.00,176.00
             240.00,176.00 240.00,160.00 240.00,160.00
             240.00,160.00 151.00,160.00 151.00,160.00
             141.35,160.02 142.89,160.39 133.68,175.00
             133.68,175.00 107.42,217.00 107.42,217.00
             107.42,217.00 76.19,267.00 76.19,267.00
             73.65,271.10 65.52,283.27 64.17,287.00
             63.91,289.14 64.00,291.78 64.17,294.00
             64.17,294.00 64.17,432.00 64.17,432.00 Z" />
</svg>
