<?xml version="1.0" encoding="UTF-8" standalone="no"?>
<!DOCTYPE svg PUBLIC "-//W3C//DTD SVG 1.1//EN" "http://www.w3.org/Graphics/SVG/1.1/DTD/svg11.dtd">
<svg width="100%" height="100%" viewBox="0 0 1801 501" version="1.1" xmlns="http://www.w3.org/2000/svg" xmlns:xlink="http://www.w3.org/1999/xlink" xml:space="preserve" xmlns:serif="http://www.serif.com/" style="fill-rule:evenodd;clip-rule:evenodd;stroke-linejoin:round;stroke-miterlimit:2;">
    <g transform="matrix(1,0,0,1,-13243,-17814)">
        <g id="AYON_tight_G" transform="matrix(0.736439,0,0,0.560717,-6190.22,8134.09)">
            <rect x="26388.3" y="17264.3" width="2444.2" height="891.715" style="fill:none;"/>
            <g id="AYON_logo" transform="matrix(5.32251,0,0,6.99052,25370,15936.6)">
                <g transform="matrix(1,0,0,1,471.969,279.213)">
                    <path d="M0,-34.016C9.378,-34.016 17.008,-26.386 17.008,-17.008C17.008,-7.63 9.378,0 0,0C-9.378,0 -17.008,-7.63 -17.008,-17.008C-17.008,-26.386 -9.378,-34.016 0,-34.016M0,-68.032C-28.18,-68.032 -51.024,-45.188 -51.024,-17.008C-51.024,11.172 -28.18,34.016 0,34.016C28.18,34.016 51.024,11.172 51.024,-17.008C51.024,-45.188 28.18,-68.032 0,-68.032" style="fill:rgb(0,214,161);fill-rule:nonzero;"/>
                </g>
                <g transform="matrix(1,0,0,1,293.386,211.343)">
                    <path d="M0,101.886C-4.696,101.886 -8.504,98.078 -8.504,93.382L-8.504,28.874L-79.027,99.395C-82.349,102.716 -87.73,102.716 -91.052,99.395C-94.374,96.075 -94.374,90.689 -91.052,87.369L-6.012,2.33C-3.583,-0.103 0.071,-0.83 3.255,0.487C6.432,1.803 8.504,4.902 8.504,8.343L8.504,93.382C8.504,98.078 4.696,101.886 0,101.886" style="fill:rgb(0,214,161);fill-rule:nonzero;"/>
                </g>
                <g transform="matrix(1,0,0,1,548.504,211.343)">
                    <path d="M0,101.886C-4.696,101.886 -8.504,98.078 -8.504,93.382L-8.504,8.343C-8.504,4.902 -6.432,1.803 -3.255,0.487C-0.075,-0.83 3.579,-0.103 6.013,2.33L91.052,87.369C94.374,90.689 94.374,96.075 91.052,99.395C87.73,102.716 82.349,102.716 79.027,99.395L8.504,28.874L8.504,93.382C8.504,98.078 4.696,101.886 0,101.886" style="fill:rgb(0,214,161);fill-rule:nonzero;"/>
                </g>
                <g transform="matrix(1,0,0,1,633.543,211.181)">
                    <path d="M0,68.032C-4.696,68.032 -8.504,64.224 -8.504,59.528L-8.504,8.504C-8.504,3.808 -4.696,0 0,0C4.696,0 8.504,3.808 8.504,8.504L8.504,59.528C8.504,64.224 4.696,68.032 0,68.032" style="fill:rgb(0,214,161);fill-rule:nonzero;"/>
                </g>
                <g transform="matrix(-1,0,0,1,654.804,-155.906)">
                    <rect x="318.898" y="367.087" width="17.008" height="17.008" style="fill:rgb(0,214,161);"/>
                </g>
                <g transform="matrix(-1,0,0,1,688.82,-121.89)">
                    <rect x="335.906" y="350.079" width="17.008" height="17.008" style="fill:rgb(0,214,161);"/>
                </g>
                <g transform="matrix(0,-1,-1,0,361.417,270.709)">
                    <path d="M-8.504,-8.504C-13.2,-8.504 -17.008,-4.697 -17.008,0C-17.008,4.697 -13.2,8.504 -8.504,8.504C-3.807,8.504 0,4.697 0,0C0,-4.697 -3.807,-8.504 -8.504,-8.504" style="fill:rgb(0,214,161);fill-rule:nonzero;"/>
                </g>
                <g transform="matrix(0,-1,-1,0,361.417,296.221)">
                    <path d="M-8.504,-8.504C-13.201,-8.504 -17.008,-4.697 -17.008,0C-17.008,4.697 -13.201,8.504 -8.504,8.504C-3.807,8.504 0,4.697 0,0C0,-4.697 -3.807,-8.504 -8.504,-8.504" style="fill:rgb(0,214,161);fill-rule:nonzero;"/>
                </g>
                <g transform="matrix(1,0,0,1,403.937,262.205)">
                    <path d="M0,-68.031L-51.023,-17.008L-51.023,0L-34.016,0L17.008,-51.023L17.008,-68.031L0,-68.031Z" style="fill:rgb(0,214,161);fill-rule:nonzero;"/>
                </g>
            </g>
        </g>
    </g>
</svg>
